# Generated by the TriMeshRef class
# Number of vertices: 707
# Number of faces: 1312
v -0.360413712204115 -0.075677686291793195 0.111132279594993
v -0.30449125880328098 -0.075677686291793195 0.111132279594993
v -0.30449125880328098 -0.0197552328909587 0.111132279594993
v -0.360413712204115 -0.0197552328909587 0.111132279594993
v -0.360413712204115 -0.075677686291793195 0.16705473299582799
v -0.30449125880328098 -0.075677686291793195 0.16705473299582799
v -0.30449125880328098 -0.0197552328909587 0.16705473299582799
v -0.360413712204115 -0.0197552328909587 0.16705473299582799
v -0.30449125880328098 -0.29936749989513101 0.222977186396662
v -0.248568805402446 -0.29936749989513101 0.222977186396662
v -0.248568805402446 -0.24344504649429599 0.222977186396662
v -0.30449125880328098 -0.24344504649429599 0.222977186396662
v -0.30449125880328098 -0.29936749989513101 0.27889963979749699
v -0.248568805402446 -0.29936749989513101 0.27889963979749699
v -0.248568805402446 -0.24344504649429599 0.27889963979749699
v -0.30449125880328098 -0.24344504649429599 0.27889963979749699
v -0.30449125880328098 -0.29936749989513101 0.33482209319833101
v -0.248568805402446 -0.29936749989513101 0.33482209319833101
v -0.248568805402446 -0.24344504649429599 0.33482209319833101
v -0.30449125880328098 -0.24344504649429599 0.33482209319833101
v -0.30449125880328098 -0.24344504649429599 0.16705473299582799
v -0.248568805402446 -0.24344504649429599 0.16705473299582799
v -0.248568805402446 -0.187522593093462 0.16705473299582799
v -0.30449125880328098 -0.187522593093462 0.16705473299582799
v -0.248568805402446 -0.187522593093462 0.222977186396662
v -0.30449125880328098 -0.187522593093462 0.222977186396662
v -0.248568805402446 -0.187522593093462 0.27889963979749699
v -0.30449125880328098 -0.187522593093462 0.27889963979749699
v -0.30449125880328098 -0.187522593093462 0.111132279594993
v -0.248568805402446 -0.187522593093462 0.111132279594993
v -0.248568805402446 -0.13160013969262799 0.111132279594993
v -0.30449125880328098 -0.13160013969262799 0.111132279594993
v -0.248568805402446 -0.13160013969262799 0.16705473299582799
v -0.30449125880328098 -0.13160013969262799 0.16705473299582799
v -0.248568805402446 -0.13160013969262799 0.222977186396662
v -0.30449125880328098 -0.13160013969262799 0.222977186396662
v -0.248568805402446 -0.13160013969262799 0.27889963979749699
v -0.30449125880328098 -0.13160013969262799 0.27889963979749699
v -0.30449125880328098 -0.13160013969262799 0.055209826194158901
v -0.248568805402446 -0.13160013969262799 0.055209826194158901
v -0.248568805402446 -0.075677686291793195 0.055209826194158901
v -0.30449125880328098 -0.075677686291793195 0.055209826194158901
v -0.248568805402446 -0.075677686291793195 0.111132279594993
v -0.248568805402446 -0.075677686291793195 0.16705473299582799
v -0.248568805402446 -0.075677686291793195 0.222977186396662
v -0.30449125880328098 -0.075677686291793195 0.222977186396662
v -0.248568805402446 -0.075677686291793195 0.27889963979749699
v -0.30449125880328098 -0.075677686291793195 0.27889963979749699
v -0.248568805402446 -0.0197552328909587 0.055209826194158901
v -0.30449125880328098 -0.0197552328909587 0.055209826194158901
v -0.248568805402446 -0.0197552328909587 0.111132279594993
v -0.248568805402446 -0.0197552328909587 0.16705473299582799
v -0.248568805402446 -0.0197552328909587 0.222977186396662
v -0.30449125880328098 -0.0197552328909587 0.222977186396662
v -0.248568805402446 0.036167220509875801 0.16705473299582799
v -0.30449125880328098 0.036167220509875801 0.16705473299582799
v -0.248568805402446 0.036167220509875801 0.222977186396662
v -0.30449125880328098 0.036167220509875801 0.222977186396662
v -0.248568805402446 -0.24344504649429599 0.111132279594993
v -0.19264635200161201 -0.24344504649429599 0.111132279594993
v -0.19264635200161201 -0.187522593093462 0.111132279594993
v -0.19264635200161201 -0.24344504649429599 0.16705473299582799
v -0.19264635200161201 -0.187522593093462 0.16705473299582799
v -0.19264635200161201 -0.13160013969262799 0.111132279594993
v -0.19264635200161201 -0.13160013969262799 0.16705473299582799
v -0.19264635200161201 -0.13160013969262799 0.055209826194158901
v -0.19264635200161201 -0.075677686291793195 0.055209826194158901
v -0.19264635200161201 -0.075677686291793195 0.111132279594993
v -0.19264635200161201 -0.075677686291793195 0.16705473299582799
v -0.19264635200161201 -0.13160013969262799 0.222977186396662
v -0.19264635200161201 -0.075677686291793195 0.222977186396662
v -0.19264635200161201 -0.0197552328909587 0.055209826194158901
v -0.19264635200161201 -0.0197552328909587 0.111132279594993
v -0.19264635200161201 -0.0197552328909587 0.16705473299582799
v -0.19264635200161201 -0.0197552328909587 0.222977186396662
v -0.19264635200161201 0.036167220509875801 0.16705473299582799
v -0.19264635200161201 0.036167220509875801 0.222977186396662
v -0.248568805402446 0.20393458071237899 0.111132279594993
v -0.19264635200161201 0.20393458071237899 0.111132279594993
v -0.19264635200161201 0.25985703411321298 0.111132279594993
v -0.248568805402446 0.25985703411321298 0.111132279594993
v -0.248568805402446 0.20393458071237899 0.16705473299582799
v -0.19264635200161201 0.20393458071237899 0.16705473299582799
v -0.19264635200161201 0.25985703411321298 0.16705473299582799
v -0.248568805402446 0.25985703411321298 0.16705473299582799
v -0.19264635200161201 0.315779487514048 0.111132279594993
v -0.248568805402446 0.315779487514048 0.111132279594993
v -0.19264635200161201 0.315779487514048 0.16705473299582799
v -0.248568805402446 0.315779487514048 0.16705473299582799
v -0.19264635200161201 -0.41121240669679998 0.222977186396662
v -0.13672389860077799 -0.41121240669679998 0.222977186396662
v -0.13672389860077799 -0.35528995329596502 0.222977186396662
v -0.19264635200161201 -0.35528995329596502 0.222977186396662
v -0.19264635200161201 -0.41121240669679998 0.27889963979749699
v -0.13672389860077799 -0.41121240669679998 0.27889963979749699
v -0.13672389860077799 -0.35528995329596502 0.27889963979749699
v -0.19264635200161201 -0.35528995329596502 0.27889963979749699
v -0.13672389860077799 -0.29936749989513101 0.222977186396662
v -0.19264635200161201 -0.29936749989513101 0.222977186396662
v -0.13672389860077799 -0.29936749989513101 0.27889963979749699
v -0.19264635200161201 -0.29936749989513101 0.27889963979749699
v -0.19264635200161201 -0.35528995329596502 0.33482209319833101
v -0.13672389860077799 -0.35528995329596502 0.33482209319833101
v -0.13672389860077799 -0.29936749989513101 0.33482209319833101
v -0.19264635200161201 -0.29936749989513101 0.33482209319833101
v -0.13672389860077799 -0.24344504649429599 0.222977186396662
v -0.19264635200161201 -0.24344504649429599 0.222977186396662
v -0.13672389860077799 -0.24344504649429599 0.27889963979749699
v -0.19264635200161201 -0.24344504649429599 0.27889963979749699
v -0.13672389860077799 -0.24344504649429599 0.33482209319833101
v -0.19264635200161201 -0.24344504649429599 0.33482209319833101
v -0.13672389860077799 -0.24344504649429599 0.16705473299582799
v -0.13672389860077799 -0.187522593093462 0.16705473299582799
v -0.13672389860077799 -0.187522593093462 0.222977186396662
v -0.19264635200161201 -0.187522593093462 0.222977186396662
v -0.13672389860077799 -0.187522593093462 0.27889963979749699
v -0.19264635200161201 -0.187522593093462 0.27889963979749699
v -0.13672389860077799 -0.187522593093462 0.111132279594993
v -0.13672389860077799 -0.13160013969262799 0.111132279594993
v -0.13672389860077799 -0.13160013969262799 0.16705473299582799
v -0.13672389860077799 -0.13160013969262799 0.222977186396662
v -0.13672389860077799 -0.13160013969262799 0.27889963979749699
v -0.19264635200161201 -0.13160013969262799 0.27889963979749699
v -0.13672389860077799 -0.075677686291793195 0.111132279594993
v -0.13672389860077799 -0.075677686291793195 0.16705473299582799
v -0.13672389860077799 -0.075677686291793195 0.222977186396662
v -0.13672389860077799 -0.075677686291793195 0.27889963979749699
v -0.19264635200161201 -0.075677686291793195 0.27889963979749699
v -0.13672389860077799 -0.075677686291793195 0.055209826194158901
v -0.13672389860077799 -0.0197552328909587 0.055209826194158901
v -0.13672389860077799 -0.0197552328909587 0.111132279594993
v -0.13672389860077799 -0.0197552328909587 0.16705473299582799
v -0.13672389860077799 -0.0197552328909587 0.222977186396662
v -0.13672389860077799 0.036167220509875801 0.111132279594993
v -0.19264635200161201 0.036167220509875801 0.111132279594993
v -0.13672389860077799 0.036167220509875801 0.16705473299582799
v -0.19264635200161201 0.092089673910710199 0.111132279594993
v -0.13672389860077799 0.092089673910710199 0.111132279594993
v -0.13672389860077799 0.14801212731154501 0.111132279594993
v -0.19264635200161201 0.14801212731154501 0.111132279594993
v -0.19264635200161201 0.092089673910710199 0.16705473299582799
v -0.13672389860077799 0.092089673910710199 0.16705473299582799
v -0.13672389860077799 0.14801212731154501 0.16705473299582799
v -0.19264635200161201 0.14801212731154501 0.16705473299582799
v -0.13672389860077799 0.20393458071237899 0.111132279594993
v -0.13672389860077799 0.20393458071237899 0.16705473299582799
v -0.19264635200161201 0.14801212731154501 0.222977186396662
v -0.13672389860077799 0.14801212731154501 0.222977186396662
v -0.13672389860077799 0.20393458071237899 0.222977186396662
v -0.19264635200161201 0.20393458071237899 0.222977186396662
v -0.19264635200161201 0.20393458071237899 0.055209826194158901
v -0.13672389860077799 0.20393458071237899 0.055209826194158901
v -0.13672389860077799 0.25985703411321298 0.055209826194158901
v -0.19264635200161201 0.25985703411321298 0.055209826194158901
v -0.13672389860077799 0.25985703411321298 0.111132279594993
v -0.13672389860077799 0.25985703411321298 0.16705473299582799
v -0.13672389860077799 0.25985703411321298 0.222977186396662
v -0.19264635200161201 0.25985703411321298 0.222977186396662
v -0.13672389860077799 0.315779487514048 0.055209826194158901
v -0.19264635200161201 0.315779487514048 0.055209826194158901
v -0.13672389860077799 0.315779487514048 0.111132279594993
v -0.13672389860077799 0.315779487514048 0.16705473299582799
v -0.13672389860077799 0.315779487514048 0.222977186396662
v -0.19264635200161201 0.315779487514048 0.222977186396662
v -0.13672389860077799 0.37170194091488201 0.111132279594993
v -0.19264635200161201 0.37170194091488201 0.111132279594993
v -0.13672389860077799 0.37170194091488201 0.16705473299582799
v -0.19264635200161201 0.37170194091488201 0.16705473299582799
v -0.13672389860077799 0.37170194091488201 0.222977186396662
v -0.19264635200161201 0.37170194091488201 0.222977186396662
v -0.080801445199943103 -0.13160013969262799 0.111132279594993
v -0.080801445199943103 -0.075677686291793195 0.111132279594993
v -0.080801445199943103 -0.13160013969262799 0.16705473299582799
v -0.080801445199943103 -0.075677686291793195 0.16705473299582799
v -0.080801445199943103 -0.13160013969262799 0.222977186396662
v -0.080801445199943103 -0.075677686291793195 0.222977186396662
v -0.080801445199943103 -0.0197552328909587 0.111132279594993
v -0.080801445199943103 -0.0197552328909587 0.16705473299582799
v -0.080801445199943103 -0.0197552328909587 0.222977186396662
v -0.080801445199943103 0.036167220509875801 0.111132279594993
v -0.080801445199943103 0.036167220509875801 0.16705473299582799
v -0.080801445199943103 0.092089673910710199 0.111132279594993
v -0.080801445199943103 0.14801212731154501 0.111132279594993
v -0.080801445199943103 0.092089673910710199 0.16705473299582799
v -0.080801445199943103 0.14801212731154501 0.16705473299582799
v -0.13672389860077799 0.092089673910710199 0.222977186396662
v -0.080801445199943103 0.092089673910710199 0.222977186396662
v -0.080801445199943103 0.14801212731154501 0.222977186396662
v -0.13672389860077799 0.14801212731154501 0.055209826194158901
v -0.080801445199943103 0.14801212731154501 0.055209826194158901
v -0.080801445199943103 0.20393458071237899 0.055209826194158901
v -0.080801445199943103 0.20393458071237899 0.111132279594993
v -0.080801445199943103 0.20393458071237899 0.16705473299582799
v -0.080801445199943103 0.20393458071237899 0.222977186396662
v -0.080801445199943103 0.25985703411321298 0.055209826194158901
v -0.080801445199943103 0.25985703411321298 0.111132279594993
v -0.080801445199943103 0.25985703411321298 0.16705473299582799
v -0.080801445199943103 0.25985703411321298 0.222977186396662
v -0.080801445199943103 0.315779487514048 0.055209826194158901
v -0.080801445199943103 0.315779487514048 0.111132279594993
v -0.080801445199943103 0.315779487514048 0.16705473299582799
v -0.080801445199943103 0.315779487514048 0.222977186396662
v -0.080801445199943103 0.37170194091488201 0.055209826194158901
v -0.13672389860077799 0.37170194091488201 0.055209826194158901
v -0.080801445199943103 0.37170194091488201 0.111132279594993
v -0.080801445199943103 0.37170194091488201 0.16705473299582799
v -0.080801445199943103 0.37170194091488201 0.222977186396662
v -0.080801445199943103 0.42762439431571703 0.111132279594993
v -0.13672389860077799 0.42762439431571703 0.111132279594993
v -0.080801445199943103 0.42762439431571703 0.16705473299582799
v -0.13672389860077799 0.42762439431571703 0.16705473299582799
v -0.080801445199943103 0.42762439431571703 0.222977186396662
v -0.13672389860077799 0.42762439431571703 0.222977186396662
v -0.080801445199943103 -0.24344504649429599 0.16705473299582799
v -0.024878991799108699 -0.24344504649429599 0.16705473299582799
v -0.024878991799108699 -0.187522593093462 0.16705473299582799
v -0.080801445199943103 -0.187522593093462 0.16705473299582799
v -0.080801445199943103 -0.24344504649429599 0.222977186396662
v -0.024878991799108699 -0.24344504649429599 0.222977186396662
v -0.024878991799108699 -0.187522593093462 0.222977186396662
v -0.080801445199943103 -0.187522593093462 0.222977186396662
v -0.080801445199943103 -0.187522593093462 0.111132279594993
v -0.024878991799108699 -0.187522593093462 0.111132279594993
v -0.024878991799108699 -0.13160013969262799 0.111132279594993
v -0.024878991799108699 -0.13160013969262799 0.16705473299582799
v -0.024878991799108699 -0.13160013969262799 0.222977186396662
v -0.080801445199943103 -0.187522593093462 0.27889963979749699
v -0.024878991799108699 -0.187522593093462 0.27889963979749699
v -0.024878991799108699 -0.13160013969262799 0.27889963979749699
v -0.080801445199943103 -0.13160013969262799 0.27889963979749699
v -0.024878991799108699 -0.075677686291793195 0.111132279594993
v -0.024878991799108699 -0.075677686291793195 0.16705473299582799
v -0.024878991799108699 -0.075677686291793195 0.222977186396662
v -0.024878991799108699 -0.075677686291793195 0.27889963979749699
v -0.080801445199943103 -0.075677686291793195 0.27889963979749699
v -0.024878991799108699 -0.0197552328909587 0.111132279594993
v -0.024878991799108699 -0.0197552328909587 0.16705473299582799
v -0.024878991799108699 -0.0197552328909587 0.222977186396662
v -0.024878991799108699 0.036167220509875801 0.111132279594993
v -0.024878991799108699 0.092089673910710199 0.111132279594993
v -0.024878991799108699 0.036167220509875801 0.16705473299582799
v -0.024878991799108699 0.092089673910710199 0.16705473299582799
v -0.080801445199943103 0.036167220509875801 0.222977186396662
v -0.024878991799108699 0.036167220509875801 0.222977186396662
v -0.024878991799108699 0.092089673910710199 0.222977186396662
v -0.080801445199943103 0.092089673910710199 0.055209826194158901
v -0.024878991799108699 0.092089673910710199 0.055209826194158901
v -0.024878991799108699 0.14801212731154501 0.055209826194158901
v -0.024878991799108699 0.14801212731154501 0.111132279594993
v -0.024878991799108699 0.14801212731154501 0.16705473299582799
v -0.024878991799108699 0.14801212731154501 0.222977186396662
v -0.024878991799108699 0.20393458071237899 0.055209826194158901
v -0.024878991799108699 0.20393458071237899 0.111132279594993
v -0.024878991799108699 0.20393458071237899 0.16705473299582799
v -0.024878991799108699 0.20393458071237899 0.222977186396662
v -0.024878991799108699 0.25985703411321298 0.111132279594993
v -0.024878991799108699 0.25985703411321298 0.16705473299582799
v -0.024878991799108699 0.315779487514048 0.111132279594993
v -0.024878991799108699 0.315779487514048 0.16705473299582799
v -0.024878991799108699 0.25985703411321298 0.222977186396662
v -0.024878991799108699 0.315779487514048 0.222977186396662
v -0.024878991799108699 0.315779487514048 0.055209826194158901
v -0.024878991799108699 0.37170194091488201 0.055209826194158901
v -0.024878991799108699 0.37170194091488201 0.111132279594993
v -0.024878991799108699 0.37170194091488201 0.16705473299582799
v -0.024878991799108699 0.37170194091488201 0.222977186396662
v -0.024878991799108699 0.42762439431571703 0.111132279594993
v -0.024878991799108699 0.42762439431571703 0.16705473299582799
v -0.024878991799108699 0.42762439431571703 0.222977186396662
v -0.024878991799108699 0.48354684771655099 0.16705473299582799
v -0.080801445199943103 0.48354684771655099 0.16705473299582799
v -0.024878991799108699 0.48354684771655099 0.222977186396662
v -0.080801445199943103 0.48354684771655099 0.222977186396662
v 0.031043461601725799 -0.24344504649429599 0.16705473299582799
v 0.031043461601725799 -0.187522593093462 0.16705473299582799
v 0.031043461601725799 -0.24344504649429599 0.222977186396662
v 0.031043461601725799 -0.187522593093462 0.222977186396662
v -0.024878991799108699 -0.24344504649429599 0.27889963979749699
v 0.031043461601725799 -0.24344504649429599 0.27889963979749699
v 0.031043461601725799 -0.187522593093462 0.27889963979749699
v 0.031043461601725799 -0.187522593093462 0.111132279594993
v 0.031043461601725799 -0.13160013969262799 0.111132279594993
v 0.031043461601725799 -0.13160013969262799 0.16705473299582799
v 0.031043461601725799 -0.13160013969262799 0.222977186396662
v 0.031043461601725799 -0.13160013969262799 0.27889963979749699
v 0.031043461601725799 -0.075677686291793195 0.111132279594993
v 0.031043461601725799 -0.075677686291793195 0.16705473299582799
v 0.031043461601725799 -0.075677686291793195 0.222977186396662
v 0.031043461601725799 0.036167220509875801 0.111132279594993
v 0.031043461601725799 0.092089673910710199 0.111132279594993
v 0.031043461601725799 0.036167220509875801 0.16705473299582799
v 0.031043461601725799 0.092089673910710199 0.16705473299582799
v 0.031043461601725799 0.036167220509875801 0.222977186396662
v 0.031043461601725799 0.092089673910710199 0.222977186396662
v 0.031043461601725799 0.092089673910710199 0.055209826194158901
v 0.031043461601725799 0.14801212731154501 0.055209826194158901
v 0.031043461601725799 0.14801212731154501 0.111132279594993
v 0.031043461601725799 0.14801212731154501 0.16705473299582799
v 0.031043461601725799 0.14801212731154501 0.222977186396662
v 0.031043461601725799 0.20393458071237899 0.111132279594993
v 0.031043461601725799 0.20393458071237899 0.16705473299582799
v 0.031043461601725799 0.25985703411321298 0.111132279594993
v 0.031043461601725799 0.315779487514048 0.111132279594993
v 0.031043461601725799 0.25985703411321298 0.16705473299582799
v 0.031043461601725799 0.315779487514048 0.16705473299582799
v 0.031043461601725799 0.25985703411321298 0.222977186396662
v 0.031043461601725799 0.315779487514048 0.222977186396662
v 0.031043461601725799 0.315779487514048 0.055209826194158901
v 0.031043461601725799 0.37170194091488201 0.055209826194158901
v 0.031043461601725799 0.37170194091488201 0.111132279594993
v 0.031043461601725799 0.37170194091488201 0.16705473299582799
v 0.031043461601725799 0.37170194091488201 0.222977186396662
v 0.031043461601725799 0.42762439431571703 0.111132279594993
v 0.031043461601725799 0.42762439431571703 0.16705473299582799
v 0.031043461601725799 0.42762439431571703 0.222977186396662
v 0.031043461601725799 0.48354684771655099 0.16705473299582799
v 0.031043461601725799 0.48354684771655099 0.222977186396662
v 0.031043461601725799 -0.29936749989513101 0.16705473299582799
v 0.086965915002560207 -0.29936749989513101 0.16705473299582799
v 0.086965915002560207 -0.24344504649429599 0.16705473299582799
v 0.031043461601725799 -0.29936749989513101 0.222977186396662
v 0.086965915002560207 -0.29936749989513101 0.222977186396662
v 0.086965915002560207 -0.24344504649429599 0.222977186396662
v 0.031043461601725799 -0.29936749989513101 0.27889963979749699
v 0.086965915002560207 -0.29936749989513101 0.27889963979749699
v 0.086965915002560207 -0.24344504649429599 0.27889963979749699
v 0.031043461601725799 -0.24344504649429599 0.111132279594993
v 0.086965915002560207 -0.24344504649429599 0.111132279594993
v 0.086965915002560207 -0.187522593093462 0.111132279594993
v 0.086965915002560207 -0.187522593093462 0.16705473299582799
v 0.086965915002560207 -0.187522593093462 0.222977186396662
v 0.086965915002560207 -0.187522593093462 0.27889963979749699
v 0.086965915002560207 -0.13160013969262799 0.16705473299582799
v 0.086965915002560207 -0.13160013969262799 0.222977186396662
v 0.086965915002560207 -0.13160013969262799 0.27889963979749699
v 0.086965915002560207 -0.075677686291793195 0.16705473299582799
v 0.086965915002560207 -0.075677686291793195 0.222977186396662
v 0.031043461601725799 -0.0197552328909587 0.111132279594993
v 0.086965915002560207 -0.0197552328909587 0.111132279594993
v 0.086965915002560207 0.036167220509875801 0.111132279594993
v 0.031043461601725799 -0.0197552328909587 0.16705473299582799
v 0.086965915002560207 -0.0197552328909587 0.16705473299582799
v 0.086965915002560207 0.036167220509875801 0.16705473299582799
v 0.031043461601725799 -0.0197552328909587 0.222977186396662
v 0.086965915002560207 -0.0197552328909587 0.222977186396662
v 0.086965915002560207 0.036167220509875801 0.222977186396662
v 0.031043461601725799 0.036167220509875801 0.055209826194158901
v 0.086965915002560207 0.036167220509875801 0.055209826194158901
v 0.086965915002560207 0.092089673910710199 0.055209826194158901
v 0.086965915002560207 0.092089673910710199 0.111132279594993
v 0.086965915002560207 0.092089673910710199 0.16705473299582799
v 0.086965915002560207 0.092089673910710199 0.222977186396662
v 0.031043461601725799 0.036167220509875801 0.27889963979749699
v 0.086965915002560207 0.036167220509875801 0.27889963979749699
v 0.086965915002560207 0.092089673910710199 0.27889963979749699
v 0.031043461601725799 0.092089673910710199 0.27889963979749699
v 0.086965915002560207 0.14801212731154501 0.111132279594993
v 0.086965915002560207 0.14801212731154501 0.16705473299582799
v 0.086965915002560207 0.14801212731154501 0.222977186396662
v 0.031043461601725799 0.25985703411321298 0.055209826194158901
v 0.086965915002560207 0.25985703411321298 0.055209826194158901
v 0.086965915002560207 0.315779487514048 0.055209826194158901
v 0.086965915002560207 0.25985703411321298 0.111132279594993
v 0.086965915002560207 0.315779487514048 0.111132279594993
v 0.086965915002560207 0.25985703411321298 0.16705473299582799
v 0.086965915002560207 0.315779487514048 0.16705473299582799
v 0.086965915002560207 0.25985703411321298 0.222977186396662
v 0.086965915002560207 0.315779487514048 0.222977186396662
v 0.086965915002560207 0.37170194091488201 0.055209826194158901
v 0.086965915002560207 0.37170194091488201 0.111132279594993
v 0.086965915002560207 0.37170194091488201 0.16705473299582799
v 0.086965915002560207 0.37170194091488201 0.222977186396662
v 0.086965915002560207 0.42762439431571703 0.222977186396662
v 0.086965915002560207 0.48354684771655099 0.222977186396662
v 0.031043461601725799 0.42762439431571703 0.27889963979749699
v 0.086965915002560207 0.42762439431571703 0.27889963979749699
v 0.086965915002560207 0.48354684771655099 0.27889963979749699
v 0.031043461601725799 0.48354684771655099 0.27889963979749699
v 0.086965915002560207 0.539469301117386 0.222977186396662
v 0.031043461601725799 0.539469301117386 0.222977186396662
v 0.086965915002560207 0.539469301117386 0.27889963979749699
v 0.031043461601725799 0.539469301117386 0.27889963979749699
v 0.142888368403395 -0.29936749989513101 0.16705473299582799
v 0.142888368403395 -0.24344504649429599 0.16705473299582799
v 0.142888368403395 -0.29936749989513101 0.222977186396662
v 0.142888368403395 -0.24344504649429599 0.222977186396662
v 0.142888368403395 -0.29936749989513101 0.27889963979749699
v 0.142888368403395 -0.24344504649429599 0.27889963979749699
v 0.142888368403395 -0.24344504649429599 0.111132279594993
v 0.142888368403395 -0.187522593093462 0.111132279594993
v 0.142888368403395 -0.187522593093462 0.16705473299582799
v 0.142888368403395 -0.187522593093462 0.222977186396662
v 0.142888368403395 -0.187522593093462 0.27889963979749699
v 0.086965915002560207 -0.24344504649429599 0.33482209319833101
v 0.142888368403395 -0.24344504649429599 0.33482209319833101
v 0.142888368403395 -0.187522593093462 0.33482209319833101
v 0.086965915002560207 -0.187522593093462 0.33482209319833101
v 0.142888368403395 -0.13160013969262799 0.111132279594993
v 0.086965915002560207 -0.13160013969262799 0.111132279594993
v 0.142888368403395 -0.13160013969262799 0.16705473299582799
v 0.142888368403395 -0.13160013969262799 0.222977186396662
v 0.142888368403395 -0.13160013969262799 0.27889963979749699
v 0.142888368403395 -0.13160013969262799 0.33482209319833101
v 0.086965915002560207 -0.13160013969262799 0.33482209319833101
v 0.142888368403395 -0.075677686291793195 0.16705473299582799
v 0.142888368403395 -0.075677686291793195 0.222977186396662
v 0.142888368403395 -0.075677686291793195 0.27889963979749699
v 0.086965915002560207 -0.075677686291793195 0.27889963979749699
v 0.142888368403395 -0.075677686291793195 0.33482209319833101
v 0.086965915002560207 -0.075677686291793195 0.33482209319833101
v 0.086965915002560207 -0.075677686291793195 0.111132279594993
v 0.142888368403395 -0.075677686291793195 0.111132279594993
v 0.142888368403395 -0.0197552328909587 0.111132279594993
v 0.142888368403395 -0.0197552328909587 0.16705473299582799
v 0.142888368403395 -0.0197552328909587 0.222977186396662
v 0.142888368403395 -0.0197552328909587 0.27889963979749699
v 0.086965915002560207 -0.0197552328909587 0.27889963979749699
v 0.142888368403395 0.036167220509875801 0.111132279594993
v 0.142888368403395 0.036167220509875801 0.16705473299582799
v 0.142888368403395 0.036167220509875801 0.222977186396662
v 0.142888368403395 0.036167220509875801 0.27889963979749699
v 0.142888368403395 0.092089673910710199 0.111132279594993
v 0.142888368403395 0.092089673910710199 0.16705473299582799
v 0.142888368403395 0.092089673910710199 0.222977186396662
v 0.142888368403395 0.092089673910710199 0.27889963979749699
v 0.142888368403395 0.14801212731154501 0.111132279594993
v 0.142888368403395 0.14801212731154501 0.16705473299582799
v 0.142888368403395 0.14801212731154501 0.222977186396662
v 0.086965915002560207 0.20393458071237899 0.111132279594993
v 0.142888368403395 0.20393458071237899 0.111132279594993
v 0.142888368403395 0.25985703411321298 0.111132279594993
v 0.086965915002560207 0.20393458071237899 0.16705473299582799
v 0.142888368403395 0.20393458071237899 0.16705473299582799
v 0.142888368403395 0.25985703411321298 0.16705473299582799
v 0.086965915002560207 0.20393458071237899 0.222977186396662
v 0.142888368403395 0.20393458071237899 0.222977186396662
v 0.142888368403395 0.25985703411321298 0.222977186396662
v 0.142888368403395 0.25985703411321298 0.055209826194158901
v 0.142888368403395 0.315779487514048 0.055209826194158901
v 0.142888368403395 0.315779487514048 0.111132279594993
v 0.142888368403395 0.315779487514048 0.16705473299582799
v 0.142888368403395 0.315779487514048 0.222977186396662
v 0.142888368403395 0.37170194091488201 0.111132279594993
v 0.142888368403395 0.37170194091488201 0.16705473299582799
v 0.142888368403395 0.37170194091488201 0.222977186396662
v 0.142888368403395 0.42762439431571703 0.222977186396662
v 0.142888368403395 0.48354684771655099 0.222977186396662
v 0.142888368403395 0.42762439431571703 0.27889963979749699
v 0.142888368403395 0.48354684771655099 0.27889963979749699
v 0.086965915002560207 0.42762439431571703 0.33482209319833101
v 0.142888368403395 0.42762439431571703 0.33482209319833101
v 0.142888368403395 0.48354684771655099 0.33482209319833101
v 0.086965915002560207 0.48354684771655099 0.33482209319833101
v 0.142888368403395 0.539469301117386 0.222977186396662
v 0.142888368403395 0.539469301117386 0.27889963979749699
v 0.142888368403395 0.539469301117386 0.33482209319833101
v 0.086965915002560207 0.539469301117386 0.33482209319833101
v 0.19881082180422899 -0.29936749989513101 0.16705473299582799
v 0.19881082180422899 -0.24344504649429599 0.16705473299582799
v 0.19881082180422899 -0.29936749989513101 0.222977186396662
v 0.19881082180422899 -0.24344504649429599 0.222977186396662
v 0.19881082180422899 -0.29936749989513101 0.27889963979749699
v 0.19881082180422899 -0.24344504649429599 0.27889963979749699
v 0.19881082180422899 -0.24344504649429599 0.111132279594993
v 0.19881082180422899 -0.187522593093462 0.111132279594993
v 0.19881082180422899 -0.187522593093462 0.16705473299582799
v 0.19881082180422899 -0.187522593093462 0.222977186396662
v 0.19881082180422899 -0.187522593093462 0.27889963979749699
v 0.19881082180422899 -0.24344504649429599 0.33482209319833101
v 0.19881082180422899 -0.187522593093462 0.33482209319833101
v 0.142888368403395 -0.187522593093462 0.055209826194158901
v 0.19881082180422899 -0.187522593093462 0.055209826194158901
v 0.19881082180422899 -0.13160013969262799 0.055209826194158901
v 0.142888368403395 -0.13160013969262799 0.055209826194158901
v 0.19881082180422899 -0.13160013969262799 0.111132279594993
v 0.19881082180422899 -0.13160013969262799 0.16705473299582799
v 0.19881082180422899 -0.13160013969262799 0.222977186396662
v 0.19881082180422899 -0.13160013969262799 0.27889963979749699
v 0.19881082180422899 -0.13160013969262799 0.33482209319833101
v 0.19881082180422899 -0.075677686291793195 0.111132279594993
v 0.19881082180422899 -0.075677686291793195 0.16705473299582799
v 0.19881082180422899 -0.075677686291793195 0.222977186396662
v 0.19881082180422899 -0.075677686291793195 0.27889963979749699
v 0.19881082180422899 -0.075677686291793195 0.33482209319833101
v 0.19881082180422899 -0.0197552328909587 0.111132279594993
v 0.19881082180422899 -0.0197552328909587 0.16705473299582799
v 0.19881082180422899 -0.0197552328909587 0.222977186396662
v 0.19881082180422899 -0.0197552328909587 0.27889963979749699
v 0.19881082180422899 -0.0197552328909587 0.33482209319833101
v 0.142888368403395 -0.0197552328909587 0.33482209319833101
v 0.142888368403395 -0.0197552328909587 0.055209826194158901
v 0.19881082180422899 -0.0197552328909587 0.055209826194158901
v 0.19881082180422899 0.036167220509875801 0.055209826194158901
v 0.142888368403395 0.036167220509875801 0.055209826194158901
v 0.19881082180422899 0.036167220509875801 0.111132279594993
v 0.19881082180422899 0.036167220509875801 0.16705473299582799
v 0.19881082180422899 0.036167220509875801 0.222977186396662
v 0.19881082180422899 0.036167220509875801 0.27889963979749699
v 0.19881082180422899 0.092089673910710199 0.111132279594993
v 0.19881082180422899 0.092089673910710199 0.16705473299582799
v 0.19881082180422899 0.092089673910710199 0.222977186396662
v 0.19881082180422899 0.092089673910710199 0.27889963979749699
v 0.19881082180422899 0.20393458071237899 0.111132279594993
v 0.19881082180422899 0.25985703411321298 0.111132279594993
v 0.19881082180422899 0.20393458071237899 0.16705473299582799
v 0.19881082180422899 0.25985703411321298 0.16705473299582799
v 0.19881082180422899 0.20393458071237899 0.222977186396662
v 0.19881082180422899 0.25985703411321298 0.222977186396662
v 0.142888368403395 0.20393458071237899 0.27889963979749699
v 0.19881082180422899 0.20393458071237899 0.27889963979749699
v 0.19881082180422899 0.25985703411321298 0.27889963979749699
v 0.142888368403395 0.25985703411321298 0.27889963979749699
v 0.19881082180422899 0.25985703411321298 0.055209826194158901
v 0.19881082180422899 0.315779487514048 0.055209826194158901
v 0.19881082180422899 0.315779487514048 0.111132279594993
v 0.19881082180422899 0.315779487514048 0.16705473299582799
v 0.19881082180422899 0.315779487514048 0.222977186396662
v 0.19881082180422899 0.315779487514048 0.27889963979749699
v 0.142888368403395 0.315779487514048 0.27889963979749699
v 0.142888368403395 0.25985703411321298 0.33482209319833101
v 0.19881082180422899 0.25985703411321298 0.33482209319833101
v 0.19881082180422899 0.315779487514048 0.33482209319833101
v 0.142888368403395 0.315779487514048 0.33482209319833101
v 0.142888368403395 0.25985703411321298 0.39074454659916602
v 0.19881082180422899 0.25985703411321298 0.39074454659916602
v 0.19881082180422899 0.315779487514048 0.39074454659916602
v 0.142888368403395 0.315779487514048 0.39074454659916602
v 0.19881082180422899 0.37170194091488201 0.111132279594993
v 0.19881082180422899 0.37170194091488201 0.16705473299582799
v 0.19881082180422899 0.37170194091488201 0.222977186396662
v 0.142888368403395 0.37170194091488201 0.27889963979749699
v 0.19881082180422899 0.37170194091488201 0.27889963979749699
v 0.19881082180422899 0.42762439431571703 0.27889963979749699
v 0.142888368403395 0.37170194091488201 0.33482209319833101
v 0.19881082180422899 0.37170194091488201 0.33482209319833101
v 0.19881082180422899 0.42762439431571703 0.33482209319833101
v 0.19881082180422899 0.48354684771655099 0.27889963979749699
v 0.19881082180422899 0.48354684771655099 0.33482209319833101
v 0.19881082180422899 0.539469301117386 0.27889963979749699
v 0.19881082180422899 0.539469301117386 0.33482209319833101
v 0.254733275205064 -0.29936749989513101 0.16705473299582799
v 0.254733275205064 -0.24344504649429599 0.16705473299582799
v 0.254733275205064 -0.29936749989513101 0.222977186396662
v 0.254733275205064 -0.24344504649429599 0.222977186396662
v 0.254733275205064 -0.29936749989513101 0.27889963979749699
v 0.254733275205064 -0.24344504649429599 0.27889963979749699
v 0.19881082180422899 -0.24344504649429599 0.055209826194158901
v 0.254733275205064 -0.24344504649429599 0.055209826194158901
v 0.254733275205064 -0.187522593093462 0.055209826194158901
v 0.254733275205064 -0.24344504649429599 0.111132279594993
v 0.254733275205064 -0.187522593093462 0.111132279594993
v 0.254733275205064 -0.187522593093462 0.16705473299582799
v 0.254733275205064 -0.187522593093462 0.222977186396662
v 0.254733275205064 -0.187522593093462 0.27889963979749699
v 0.254733275205064 -0.24344504649429599 0.33482209319833101
v 0.254733275205064 -0.187522593093462 0.33482209319833101
v 0.254733275205064 -0.13160013969262799 0.055209826194158901
v 0.254733275205064 -0.13160013969262799 0.111132279594993
v 0.254733275205064 -0.13160013969262799 0.16705473299582799
v 0.254733275205064 -0.13160013969262799 0.222977186396662
v 0.254733275205064 -0.13160013969262799 0.27889963979749699
v 0.254733275205064 -0.13160013969262799 0.33482209319833101
v 0.19881082180422899 -0.187522593093462 0.39074454659916602
v 0.254733275205064 -0.187522593093462 0.39074454659916602
v 0.254733275205064 -0.13160013969262799 0.39074454659916602
v 0.19881082180422899 -0.13160013969262799 0.39074454659916602
v 0.19881082180422899 -0.187522593093462 0.44666699999999998
v 0.254733275205064 -0.187522593093462 0.44666699999999998
v 0.254733275205064 -0.13160013969262799 0.44666699999999998
v 0.19881082180422899 -0.13160013969262799 0.44666699999999998
v 0.254733275205064 -0.075677686291793195 0.055209826194158901
v 0.19881082180422899 -0.075677686291793195 0.055209826194158901
v 0.254733275205064 -0.075677686291793195 0.111132279594993
v 0.254733275205064 -0.075677686291793195 0.16705473299582799
v 0.254733275205064 -0.075677686291793195 0.222977186396662
v 0.254733275205064 -0.075677686291793195 0.27889963979749699
v 0.254733275205064 -0.075677686291793195 0.33482209319833101
v 0.254733275205064 -0.075677686291793195 0.39074454659916602
v 0.19881082180422899 -0.075677686291793195 0.39074454659916602
v 0.254733275205064 -0.0197552328909587 0.055209826194158901
v 0.254733275205064 -0.0197552328909587 0.111132279594993
v 0.254733275205064 -0.0197552328909587 0.16705473299582799
v 0.254733275205064 -0.0197552328909587 0.222977186396662
v 0.254733275205064 -0.0197552328909587 0.27889963979749699
v 0.254733275205064 -0.0197552328909587 0.33482209319833101
v 0.254733275205064 -0.0197552328909587 0.39074454659916602
v 0.19881082180422899 -0.0197552328909587 0.39074454659916602
v 0.254733275205064 0.036167220509875801 0.055209826194158901
v 0.254733275205064 0.036167220509875801 0.111132279594993
v 0.254733275205064 0.036167220509875801 0.16705473299582799
v 0.254733275205064 0.036167220509875801 0.222977186396662
v 0.254733275205064 0.036167220509875801 0.27889963979749699
v 0.254733275205064 0.036167220509875801 0.33482209319833101
v 0.19881082180422899 0.036167220509875801 0.33482209319833101
v 0.254733275205064 0.092089673910710199 0.111132279594993
v 0.254733275205064 0.092089673910710199 0.16705473299582799
v 0.254733275205064 0.092089673910710199 0.222977186396662
v 0.254733275205064 0.092089673910710199 0.27889963979749699
v 0.254733275205064 0.092089673910710199 0.33482209319833101
v 0.19881082180422899 0.092089673910710199 0.33482209319833101
v 0.254733275205064 0.20393458071237899 0.111132279594993
v 0.254733275205064 0.25985703411321298 0.111132279594993
v 0.254733275205064 0.20393458071237899 0.16705473299582799
v 0.254733275205064 0.25985703411321298 0.16705473299582799
v 0.254733275205064 0.20393458071237899 0.222977186396662
v 0.254733275205064 0.25985703411321298 0.222977186396662
v 0.254733275205064 0.20393458071237899 0.27889963979749699
v 0.254733275205064 0.25985703411321298 0.27889963979749699
v 0.254733275205064 0.25985703411321298 0.055209826194158901
v 0.254733275205064 0.315779487514048 0.055209826194158901
v 0.254733275205064 0.315779487514048 0.111132279594993
v 0.254733275205064 0.315779487514048 0.16705473299582799
v 0.254733275205064 0.315779487514048 0.222977186396662
v 0.254733275205064 0.315779487514048 0.27889963979749699
v 0.254733275205064 0.25985703411321298 0.33482209319833101
v 0.254733275205064 0.315779487514048 0.33482209319833101
v 0.254733275205064 0.25985703411321298 0.39074454659916602
v 0.254733275205064 0.315779487514048 0.39074454659916602
v 0.254733275205064 0.37170194091488201 0.055209826194158901
v 0.19881082180422899 0.37170194091488201 0.055209826194158901
v 0.254733275205064 0.37170194091488201 0.111132279594993
v 0.254733275205064 0.37170194091488201 0.16705473299582799
v 0.254733275205064 0.37170194091488201 0.222977186396662
v 0.254733275205064 0.37170194091488201 0.27889963979749699
v 0.254733275205064 0.37170194091488201 0.33482209319833101
v 0.254733275205064 0.42762439431571703 0.111132279594993
v 0.19881082180422899 0.42762439431571703 0.111132279594993
v 0.254733275205064 0.42762439431571703 0.16705473299582799
v 0.19881082180422899 0.42762439431571703 0.16705473299582799
v 0.254733275205064 0.42762439431571703 0.222977186396662
v 0.19881082180422899 0.42762439431571703 0.222977186396662
v 0.254733275205064 0.42762439431571703 0.27889963979749699
v 0.254733275205064 0.42762439431571703 0.33482209319833101
v 0.19881082180422899 0.37170194091488201 0.39074454659916602
v 0.254733275205064 0.37170194091488201 0.39074454659916602
v 0.254733275205064 0.42762439431571703 0.39074454659916602
v 0.19881082180422899 0.42762439431571703 0.39074454659916602
v 0.254733275205064 0.48354684771655099 0.222977186396662
v 0.19881082180422899 0.48354684771655099 0.222977186396662
v 0.254733275205064 0.48354684771655099 0.27889963979749699
v 0.254733275205064 0.48354684771655099 0.33482209319833101
v 0.254733275205064 0.48354684771655099 0.39074454659916602
v 0.19881082180422899 0.48354684771655099 0.39074454659916602
v 0.31065572860589802 -0.24344504649429599 0.16705473299582799
v 0.31065572860589802 -0.187522593093462 0.16705473299582799
v 0.31065572860589802 -0.24344504649429599 0.222977186396662
v 0.31065572860589802 -0.187522593093462 0.222977186396662
v 0.31065572860589802 -0.24344504649429599 0.27889963979749699
v 0.31065572860589802 -0.187522593093462 0.27889963979749699
v 0.31065572860589802 -0.13160013969262799 0.16705473299582799
v 0.31065572860589802 -0.13160013969262799 0.222977186396662
v 0.31065572860589802 -0.13160013969262799 0.27889963979749699
v 0.31065572860589802 -0.187522593093462 0.33482209319833101
v 0.31065572860589802 -0.13160013969262799 0.33482209319833101
v 0.31065572860589802 -0.187522593093462 0.39074454659916602
v 0.31065572860589802 -0.13160013969262799 0.39074454659916602
v 0.31065572860589802 -0.187522593093462 0.44666699999999998
v 0.31065572860589802 -0.13160013969262799 0.44666699999999998
v 0.31065572860589802 -0.13160013969262799 0.055209826194158901
v 0.31065572860589802 -0.075677686291793195 0.055209826194158901
v 0.31065572860589802 -0.13160013969262799 0.111132279594993
v 0.31065572860589802 -0.075677686291793195 0.111132279594993
v 0.31065572860589802 -0.075677686291793195 0.16705473299582799
v 0.31065572860589802 -0.075677686291793195 0.222977186396662
v 0.31065572860589802 -0.075677686291793195 0.27889963979749699
v 0.31065572860589802 -0.0197552328909587 0.055209826194158901
v 0.31065572860589802 -0.0197552328909587 0.111132279594993
v 0.31065572860589802 -0.0197552328909587 0.16705473299582799
v 0.31065572860589802 -0.0197552328909587 0.222977186396662
v 0.31065572860589802 -0.0197552328909587 0.27889963979749699
v 0.31065572860589802 0.036167220509875801 0.16705473299582799
v 0.31065572860589802 0.036167220509875801 0.222977186396662
v 0.31065572860589802 0.036167220509875801 0.27889963979749699
v 0.31065572860589802 -0.0197552328909587 0.33482209319833101
v 0.31065572860589802 0.036167220509875801 0.33482209319833101
v 0.31065572860589802 -0.0197552328909587 0.39074454659916602
v 0.31065572860589802 0.036167220509875801 0.39074454659916602
v 0.254733275205064 0.036167220509875801 0.39074454659916602
v 0.31065572860589802 0.20393458071237899 0.16705473299582799
v 0.31065572860589802 0.25985703411321298 0.16705473299582799
v 0.31065572860589802 0.20393458071237899 0.222977186396662
v 0.31065572860589802 0.25985703411321298 0.222977186396662
v 0.31065572860589802 0.25985703411321298 0.111132279594993
v 0.31065572860589802 0.315779487514048 0.111132279594993
v 0.31065572860589802 0.315779487514048 0.16705473299582799
v 0.31065572860589802 0.315779487514048 0.222977186396662
v 0.31065572860589802 0.25985703411321298 0.27889963979749699
v 0.31065572860589802 0.315779487514048 0.27889963979749699
v 0.31065572860589802 0.25985703411321298 0.33482209319833101
v 0.31065572860589802 0.315779487514048 0.33482209319833101
v 0.31065572860589802 0.25985703411321298 0.39074454659916602
v 0.31065572860589802 0.315779487514048 0.39074454659916602
v 0.31065572860589802 0.37170194091488201 0.16705473299582799
v 0.31065572860589802 0.37170194091488201 0.222977186396662
v 0.31065572860589802 0.37170194091488201 0.27889963979749699
v 0.31065572860589802 0.37170194091488201 0.33482209319833101
v 0.31065572860589802 0.37170194091488201 0.111132279594993
v 0.31065572860589802 0.42762439431571703 0.111132279594993
v 0.31065572860589802 0.42762439431571703 0.16705473299582799
v 0.31065572860589802 0.42762439431571703 0.222977186396662
v 0.31065572860589802 0.42762439431571703 0.27889963979749699
v 0.31065572860589802 0.42762439431571703 0.33482209319833101
v 0.31065572860589802 0.48354684771655099 0.16705473299582799
v 0.254733275205064 0.48354684771655099 0.16705473299582799
v 0.31065572860589802 0.48354684771655099 0.222977186396662
v 0.31065572860589802 0.48354684771655099 0.27889963979749699
v 0.31065572860589802 0.48354684771655099 0.33482209319833101
f 638 640 706
f 706 705 638
f 699 703 705
f 705 700 699
f 638 705 703
f 703 704 638
f 625 696 702
f 702 633 625
f 693 699 700
f 700 694 693
f 694 700 701
f 701 695 694
f 693 697 698
f 698 699 693
f 626 628 699
f 699 698 626
f 621 697 693
f 693 622 621
f 621 626 698
f 698 697 621
f 688 695 696
f 696 690 688
f 614 624 695
f 695 688 614
f 685 693 694
f 694 686 685
f 689 690 692
f 692 691 689
f 616 618 692
f 692 690 616
f 682 686 688
f 688 687 682
f 613 614 688
f 688 686 613
f 680 685 686
f 686 682 680
f 680 683 684
f 684 685 680
f 602 683 680
f 680 604 602
f 602 611 684
f 684 683 602
f 605 681 682
f 682 606 605
f 603 604 680
f 680 679 603
f 674 675 677
f 677 676 674
f 585 674 676
f 676 586 585
f 586 676 677
f 677 678 586
f 670 673 675
f 675 674 670
f 669 672 673
f 673 670 669
f 591 592 673
f 673 672 591
f 613 686 694
f 694 623 613
f 664 669 670
f 670 665 664
f 576 665 670
f 670 584 576
f 660 666 667
f 667 662 660
f 571 580 666
f 666 660 571
f 651 664 665
f 665 652 651
f 655 656 658
f 658 657 655
f 568 657 658
f 658 569 568
f 653 654 656
f 656 655 653
f 556 562 654
f 654 653 556
f 554 649 652
f 652 561 554
f 544 646 648
f 648 546 544
f 546 648 649
f 649 554 546
f 644 645 647
f 647 646 644
f 542 552 645
f 645 644 542
f 536 637 643
f 643 538 536
f 537 538 641
f 641 640 537
f 593 678 677
f 677 675 593
f 561 652 665
f 665 576 561
f 537 640 638
f 638 639 537
f 535 634 637
f 637 536 535
f 625 633 636
f 636 635 625
f 634 635 636
f 636 637 634
f 628 629 631
f 631 630 628
f 528 529 629
f 629 627 528
f 628 630 638
f 638 704 628
f 626 627 629
f 629 628 626
f 522 616 625
f 625 535 522
f 517 518 532
f 532 530 517
f 514 515 528
f 528 620 514
f 528 621 619
f 619 620 528
f 521 615 617
f 617 525 521
f 525 617 618
f 618 526 525
f 511 608 615
f 615 521 511
f 504 513 609
f 609 602 504
f 507 605 607
f 607 510 507
f 510 607 608
f 608 511 510
f 505 603 605
f 605 507 505
f 601 602 604
f 604 603 601
f 608 614 616
f 616 615 608
f 503 601 603
f 603 505 503
f 562 565 656
f 656 654 562
f 592 598 599
f 599 593 592
f 590 596 597
f 597 591 590
f 589 595 596
f 596 590 589
f 489 585 593
f 593 594 489
f 500 501 597
f 597 596 500
f 493 495 589
f 589 588 493
f 492 493 588
f 588 580 492
f 578 586 587
f 587 579 578
f 576 584 585
f 585 577 576
f 480 485 492
f 492 572 480
f 603 679 681
f 681 605 603
f 492 580 571
f 571 572 492
f 562 577 578
f 578 565 562
f 565 578 579
f 579 566 565
f 561 576 577
f 577 562 561
f 608 687 688
f 688 614 608
f 567 568 569
f 569 570 567
f 470 556 564
f 564 563 470
f 554 561 562
f 562 556 554
f 558 661 650
f 650 559 558
f 552 559 650
f 650 645 552
f 472 473 557
f 557 549 472
f 546 554 556
f 556 555 546
f 615 616 690
f 690 689 615
f 543 544 546
f 546 545 543
f 460 543 545
f 545 462 460
f 541 542 544
f 544 543 541
f 537 539 540
f 540 538 537
f 455 456 540
f 540 539 455
f 633 702 707
f 707 641 633
f 451 536 538
f 538 452 451
f 451 534 535
f 535 536 451
f 448 533 532
f 532 531 448
f 442 517 530
f 530 445 442
f 440 443 528
f 528 515 440
f 520 524 527
f 527 523 520
f 522 523 527
f 527 526 522
f 512 520 523
f 523 519 512
f 437 512 519
f 519 442 437
f 442 519 518
f 518 517 442
f 431 438 513
f 513 504 431
f 436 509 512
f 512 437 436
f 436 507 510
f 510 509 436
f 615 689 691
f 691 617 615
f 430 431 504
f 504 503 430
f 462 545 546
f 546 463 462
f 424 425 502
f 502 501 424
f 423 424 501
f 501 500 423
f 418 422 499
f 499 495 418
f 617 691 692
f 692 618 617
f 430 503 505
f 505 433 430
f 472 549 548
f 548 547 472
f 413 491 492
f 492 485 413
f 470 563 566
f 566 479 470
f 613 623 624
f 624 614 613
f 491 494 493
f 493 492 491
f 416 490 489
f 489 488 416
f 409 484 489
f 489 490 409
f 412 413 485
f 485 480 412
f 403 479 484
f 484 409 403
f 398 400 405
f 405 412 398
f 398 475 473
f 473 474 398
f 390 471 472
f 472 465 390
f 489 587 586
f 586 585 489
f 421 498 502
f 502 425 421
f 535 625 635
f 635 634 535
f 471 474 473
f 473 472 471
f 502 600 599
f 599 598 502
f 275 281 282
f 282 283 275
f 395 469 470
f 470 396 395
f 139 189 190
f 190 183 139
f 197 257 260
f 260 198 197
f 353 354 355
f 355 356 353
f 387 462 463
f 463 388 387
f 250 251 299
f 299 298 250
f 377 453 457
f 457 381 377
f 381 457 456
f 456 455 381
f 383 384 459
f 459 458 383
f 447 454 455
f 455 449 447
f 374 379 454
f 454 447 374
f 376 448 451
f 451 450 376
f 450 451 452
f 452 453 450
f 640 641 707
f 707 706 640
f 208 209 211
f 211 210 208
f 370 371 444
f 444 443 370
f 379 381 455
f 455 454 379
f 362 364 440
f 440 439 362
f 39 42 41
f 41 40 39
f 226 284 288
f 288 233 226
f 365 432 435
f 435 367 365
f 432 433 436
f 436 435 432
f 473 572 571
f 571 557 473
f 363 429 432
f 432 365 363
f 429 430 433
f 433 432 429
f 337 408 417
f 417 345 337
f 384 389 464
f 464 459 384
f 479 566 579
f 579 484 479
f 352 355 425
f 425 424 352
f 367 437 442
f 442 368 367
f 416 488 498
f 498 421 416
f 679 680 682
f 682 681 679
f 86 87 89
f 89 88 86
f 339 340 418
f 418 413 339
f 663 668 669
f 669 664 663
f 563 567 570
f 570 566 563
f 336 411 412
f 412 405 336
f 354 417 416
f 416 421 354
f 339 413 412
f 412 411 339
f 438 439 514
f 514 513 438
f 354 421 425
f 425 355 354
f 208 210 268
f 268 267 208
f 616 690 696
f 696 625 616
f 333 336 405
f 405 400 333
f 581 582 668
f 668 667 581
f 227 228 229
f 229 230 227
f 329 330 333
f 333 399 329
f 469 555 556
f 556 470 469
f 329 399 398
f 398 390 329
f 310 311 371
f 371 370 310
f 701 706 707
f 707 702 701
f 320 328 389
f 389 384 320
f 176 233 238
f 238 179 176
f 322 385 387
f 387 325 322
f 319 383 385
f 385 322 319
f 379 380 382
f 382 381 379
f 368 442 445
f 445 372 368
f 377 381 382
f 382 378 377
f 317 380 379
f 379 374 317
f 172 177 236
f 236 231 172
f 315 317 374
f 374 373 315
f 311 312 372
f 372 371 311
f 398 412 480
f 480 475 398
f 388 463 469
f 469 395 388
f 253 256 257
f 257 254 253
f 149 157 158
f 158 150 149
f 306 367 368
f 368 307 306
f 151 154 153
f 153 152 151
f 302 363 365
f 365 304 302
f 266 312 315
f 315 269 266
f 302 360 361
f 361 363 302
f 274 320 319
f 319 318 274
f 308 362 361
f 361 360 308
f 294 352 359
f 359 299 294
f 614 688 690
f 690 616 614
f 297 298 358
f 358 357 297
f 580 588 589
f 589 581 580
f 180 239 241
f 241 181 180
f 295 349 348
f 348 347 295
f 407 408 410
f 410 409 407
f 564 655 657
f 657 568 564
f 341 342 345
f 345 344 341
f 338 339 342
f 342 341 338
f 662 667 668
f 668 663 662
f 289 340 339
f 339 338 289
f 148 186 187
f 187 188 148
f 284 285 335
f 335 334 284
f 280 332 335
f 335 285 280
f 23 63 65
f 65 33 23
f 448 449 537
f 537 533 448
f 422 426 427
f 427 423 422
f 423 427 428
f 428 424 423
f 274 275 281
f 281 327 274
f 549 557 558
f 558 551 549
f 276 321 324
f 324 279 276
f 274 318 321
f 321 276 274
f 407 416 417
f 417 408 407
f 289 347 348
f 348 340 289
f 314 316 317
f 317 315 314
f 270 272 317
f 317 316 270
f 317 378 382
f 382 380 317
f 310 313 314
f 314 311 310
f 267 268 314
f 314 313 267
f 389 390 465
f 465 464 389
f 448 531 534
f 534 451 448
f 78 79 83
f 83 82 78
f 210 212 273
f 273 271 210
f 74 132 136
f 136 76 74
f 551 558 559
f 559 552 551
f 257 304 306
f 306 260 257
f 260 306 307
f 307 261 260
f 22 62 63
f 63 23 22
f 383 458 460
f 460 385 383
f 275 330 329
f 329 281 275
f 177 178 237
f 237 236 177
f 668 671 672
f 672 669 668
f 256 258 303
f 303 302 256
f 90 93 92
f 92 91 90
f 253 254 301
f 301 300 253
f 249 253 300
f 300 297 249
f 557 571 660
f 660 659 557
f 495 499 595
f 595 589 495
f 29 32 31
f 31 30 29
f 132 133 179
f 179 178 132
f 290 295 296
f 296 297 290
f 241 291 293
f 293 244 241
f 244 293 294
f 294 245 244
f 633 641 642
f 642 636 633
f 239 240 290
f 290 289 239
f 261 307 312
f 312 266 261
f 363 431 430
f 430 429 363
f 269 315 317
f 317 272 269
f 232 233 288
f 288 287 232
f 231 232 287
f 287 286 231
f 90 91 95
f 95 94 90
f 191 192 253
f 253 252 191
f 224 231 286
f 286 282 224
f 361 438 431
f 431 363 361
f 226 229 285
f 285 284 226
f 228 280 285
f 285 229 228
f 612 622 693
f 693 685 612
f 498 594 600
f 600 502 498
f 373 446 448
f 448 376 373
f 84 88 89
f 89 85 84
f 239 289 291
f 291 241 239
f 216 223 281
f 281 275 216
f 262 263 309
f 309 308 262
f 223 224 282
f 282 281 223
f 124 129 130
f 130 131 124
f 219 276 279
f 279 278 219
f 228 278 279
f 279 280 228
f 215 274 276
f 276 219 215
f 215 216 275
f 275 274 215
f 422 423 500
f 500 499 422
f 270 271 273
f 273 272 270
f 210 271 270
f 270 268 210
f 268 270 316
f 316 314 268
f 207 266 269
f 269 212 207
f 203 205 264
f 264 263 203
f 458 459 542
f 542 541 458
f 199 262 258
f 258 200 199
f 289 290 295
f 295 347 289
f 593 599 600
f 600 594 593
f 290 350 349
f 349 295 290
f 198 260 261
f 261 202 198
f 464 465 472
f 472 547 464
f 281 329 328
f 328 327 281
f 196 200 258
f 258 256 196
f 514 620 619
f 619 610 514
f 193 254 257
f 257 197 193
f 83 144 147
f 147 150 83
f 250 254 255
f 255 251 250
f 188 251 255
f 255 194 188
f 190 191 252
f 252 248 190
f 367 435 436
f 436 437 367
f 187 245 251
f 251 188 187
f 328 329 390
f 390 389 328
f 176 235 234
f 234 233 176
f 182 246 247
f 247 240 182
f 542 550 551
f 551 552 542
f 325 387 388
f 388 326 325
f 580 581 667
f 667 666 580
f 190 248 247
f 247 246 190
f 180 182 240
f 240 239 180
f 181 243 187
f 187 184 181
f 92 98 100
f 100 96 92
f 258 262 308
f 308 303 258
f 290 297 357
f 357 350 290
f 364 370 443
f 443 440 364
f 473 475 480
f 480 572 473
f 433 505 507
f 507 436 433
f 171 172 231
f 231 224 171
f 71 126 133
f 133 75 71
f 647 651 652
f 652 649 647
f 2 42 39
f 39 32 2
f 9 12 11
f 11 10 9
f 446 447 449
f 449 448 446
f 84 158 164
f 164 88 84
f 231 236 237
f 237 232 231
f 602 609 610
f 610 611 602
f 315 373 376
f 376 375 315
f 121 175 176
f 176 126 121
f 293 344 345
f 345 346 293
f 385 460 462
f 462 387 385
f 274 327 328
f 328 320 274
f 226 233 234
f 234 229 226
f 229 234 235
f 235 230 229
f 524 525 526
f 526 527 524
f 12 26 24
f 24 21 12
f 167 169 213
f 213 211 167
f 279 324 325
f 325 326 279
f 533 537 639
f 639 631 533
f 247 248 296
f 296 295 247
f 394 395 396
f 396 397 394
f 175 221 227
f 227 230 175
f 350 357 426
f 426 422 350
f 220 228 227
f 227 221 220
f 606 682 687
f 687 608 606
f 232 237 238
f 238 233 232
f 293 346 354
f 354 353 293
f 216 217 222
f 222 223 216
f 332 397 404
f 404 335 332
f 334 335 408
f 408 337 334
f 214 218 221
f 221 217 214
f 218 219 220
f 220 221 218
f 321 322 325
f 325 324 321
f 45 71 75
f 75 53 45
f 210 211 213
f 213 212 210
f 577 585 586
f 586 578 577
f 291 341 344
f 344 293 291
f 169 207 212
f 212 213 169
f 41 42 50
f 50 49 41
f 333 400 398
f 398 399 333
f 165 167 211
f 211 209 165
f 444 445 530
f 530 529 444
f 443 444 529
f 529 528 443
f 24 26 36
f 36 34 24
f 165 209 208
f 208 205 165
f 611 612 685
f 685 684 611
f 605 606 608
f 608 607 605
f 90 94 97
f 97 93 90
f 178 179 238
f 238 237 178
f 611 621 622
f 622 612 611
f 163 202 207
f 207 169 163
f 79 145 139
f 139 140 79
f 11 12 21
f 21 22 11
f 55 56 58
f 58 57 55
f 287 288 337
f 337 336 287
f 53 75 77
f 77 57 53
f 610 619 621
f 621 611 610
f 396 403 404
f 404 397 396
f 650 663 664
f 664 651 650
f 407 409 490
f 490 416 407
f 565 566 570
f 570 569 565
f 193 197 198
f 198 194 193
f 458 541 543
f 543 460 458
f 6 46 54
f 54 7 6
f 99 101 109
f 109 107 99
f 520 521 525
f 525 524 520
f 279 326 332
f 332 280 279
f 165 205 203
f 203 204 165
f 148 188 194
f 194 149 148
f 582 590 671
f 671 668 582
f 142 184 187
f 187 186 142
f 418 495 493
f 493 494 418
f 138 182 184
f 184 142 138
f 33 65 70
f 70 35 33
f 82 83 84
f 84 85 82
f 138 139 183
f 183 182 138
f 132 178 181
f 181 136 132
f 157 163 164
f 164 158 157
f 1 5 8
f 8 4 1
f 126 176 179
f 179 133 126
f 7 56 55
f 55 52 7
f 114 121 122
f 122 116 114
f 14 15 19
f 19 18 14
f 86 166 165
f 165 161 86
f 584 670 674
f 674 585 584
f 240 247 295
f 295 290 240
f 124 131 177
f 177 172 124
f 86 88 168
f 168 166 86
f 503 504 602
f 602 601 503
f 120 173 175
f 175 121 120
f 645 650 651
f 651 647 645
f 147 148 149
f 149 150 147
f 298 299 359
f 359 358 298
f 390 398 474
f 474 471 390
f 650 661 662
f 662 663 650
f 119 124 172
f 172 171 119
f 62 63 113
f 113 112 62
f 167 168 170
f 170 169 167
f 139 145 152
f 152 189 139
f 165 166 168
f 168 167 165
f 30 61 60
f 60 59 30
f 11 22 23
f 23 25 11
f 80 86 160
f 160 154 80
f 591 597 598
f 598 592 591
f 86 161 159
f 159 160 86
f 557 659 661
f 661 558 557
f 581 589 590
f 590 582 581
f 153 154 160
f 160 159 153
f 695 701 702
f 702 696 695
f 83 150 158
f 158 84 83
f 35 45 47
f 47 37 35
f 70 115 117
f 117 123 70
f 137 140 139
f 139 138 137
f 358 359 428
f 428 427 358
f 335 404 410
f 410 408 335
f 563 564 568
f 568 567 563
f 79 80 154
f 154 151 79
f 152 153 195
f 195 191 152
f 326 388 395
f 395 394 326
f 565 569 658
f 658 656 565
f 13 14 18
f 18 17 13
f 143 148 147
f 147 144 143
f 528 627 626
f 626 621 528
f 79 140 144
f 144 83 79
f 452 456 457
f 457 453 452
f 548 549 551
f 551 550 548
f 137 138 142
f 142 141 137
f 76 136 134
f 134 135 76
f 630 631 639
f 639 638 630
f 73 135 134
f 134 131 73
f 74 75 133
f 133 132 74
f 31 32 39
f 39 40 31
f 7 54 58
f 58 56 7
f 248 249 297
f 297 296 248
f 326 394 397
f 397 332 326
f 80 81 87
f 87 86 80
f 484 579 587
f 587 489 484
f 67 129 124
f 124 68 67
f 10 11 15
f 15 14 10
f 98 99 107
f 107 106 98
f 195 199 200
f 200 196 195
f 121 126 127
f 127 122 121
f 100 108 110
f 110 104 100
f 71 128 127
f 127 126 71
f 192 196 256
f 256 253 192
f 119 171 173
f 173 120 119
f 345 417 354
f 354 346 345
f 13 17 20
f 20 16 13
f 376 450 453
f 453 377 376
f 199 203 263
f 263 262 199
f 31 40 66
f 66 64 31
f 171 224 223
f 223 222 171
f 556 653 655
f 655 564 556
f 283 287 336
f 336 333 283
f 2 32 34
f 34 6 2
f 116 122 123
f 123 117 116
f 63 115 70
f 70 65 63
f 590 591 672
f 672 671 590
f 113 120 121
f 121 114 113
f 137 141 144
f 144 140 137
f 293 353 356
f 356 294 293
f 55 57 77
f 77 76 55
f 106 112 113
f 113 114 106
f 373 374 447
f 447 446 373
f 193 194 255
f 255 254 193
f 62 107 115
f 115 63 62
f 340 350 422
f 422 418 340
f 96 103 102
f 102 97 96
f 149 194 198
f 198 157 149
f 70 123 128
f 128 71 70
f 340 348 349
f 349 350 340
f 64 66 67
f 67 68 64
f 72 73 131
f 131 130 72
f 108 109 111
f 111 110 108
f 92 93 99
f 99 98 92
f 636 642 643
f 643 637 636
f 98 106 108
f 108 100 98
f 518 519 523
f 523 522 518
f 250 298 301
f 301 254 250
f 511 521 520
f 520 512 511
f 62 112 106
f 106 107 62
f 97 102 105
f 105 101 97
f 52 55 76
f 76 74 52
f 96 100 104
f 104 103 96
f 181 241 244
f 244 243 181
f 104 110 111
f 111 105 104
f 531 532 535
f 535 534 531
f 513 514 610
f 610 609 513
f 60 61 63
f 63 62 60
f 403 409 410
f 410 404 403
f 93 97 101
f 101 99 93
f 264 267 313
f 313 310 264
f 522 526 618
f 618 616 522
f 91 92 96
f 96 95 91
f 94 95 96
f 96 97 94
f 79 151 152
f 152 145 79
f 159 161 165
f 165 204 159
f 15 16 20
f 20 19 15
f 61 64 119
f 119 118 61
f 256 302 304
f 304 257 256
f 107 109 117
f 117 115 107
f 700 705 706
f 706 701 700
f 538 643 642
f 642 641 538
f 315 375 378
f 378 317 315
f 101 105 111
f 111 109 101
f 509 510 511
f 511 512 509
f 36 38 48
f 48 46 36
f 122 127 128
f 128 123 122
f 449 455 539
f 539 537 449
f 22 59 60
f 60 62 22
f 78 81 80
f 80 79 78
f 452 538 540
f 540 456 452
f 102 103 104
f 104 105 102
f 11 25 27
f 27 15 11
f 78 82 85
f 85 81 78
f 163 169 170
f 170 164 163
f 357 358 427
f 427 426 357
f 396 470 479
f 479 403 396
f 108 116 117
f 117 109 108
f 592 593 675
f 675 673 592
f 21 24 23
f 23 22 21
f 74 76 77
f 77 75 74
f 439 440 515
f 515 514 439
f 245 294 299
f 299 251 245
f 308 309 369
f 369 362 308
f 464 547 548
f 548 550 464
f 159 204 203
f 203 199 159
f 294 356 355
f 355 352 294
f 518 522 535
f 535 532 518
f 263 264 310
f 310 309 263
f 51 52 74
f 74 73 51
f 463 546 555
f 555 469 463
f 311 314 315
f 315 312 311
f 646 647 649
f 649 648 646
f 212 269 272
f 272 273 212
f 88 164 170
f 170 168 88
f 12 16 28
f 28 26 12
f 175 230 235
f 235 176 175
f 49 51 73
f 73 72 49
f 64 68 124
f 124 119 64
f 41 49 72
f 72 67 41
f 40 41 67
f 67 66 40
f 202 261 266
f 266 207 202
f 3 4 8
f 8 7 3
f 142 186 148
f 148 143 142
f 22 23 30
f 30 59 22
f 248 252 253
f 253 249 248
f 171 222 217
f 217 173 171
f 371 372 445
f 445 444 371
f 289 338 341
f 341 291 289
f 1 2 6
f 6 5 1
f 73 74 76
f 76 135 73
f 24 34 32
f 32 29 24
f 297 300 301
f 301 298 297
f 659 660 662
f 662 661 659
f 53 57 58
f 58 54 53
f 131 134 180
f 180 177 131
f 67 72 130
f 130 129 67
f 352 424 428
f 428 359 352
f 3 7 52
f 52 51 3
f 307 368 372
f 372 312 307
f 113 118 119
f 119 120 113
f 30 31 64
f 64 61 30
f 284 334 337
f 337 288 284
f 585 586 678
f 678 593 585
f 187 243 244
f 244 245 187
f 336 337 345
f 345 342 336
f 157 198 202
f 202 163 157
f 141 142 143
f 143 144 141
f 623 694 695
f 695 624 623
f 2 3 50
f 50 42 2
f 106 114 116
f 116 108 106
f 205 208 267
f 267 264 205
f 35 70 71
f 71 45 35
f 3 51 49
f 49 50 3
f 152 191 190
f 190 189 152
f 628 704 703
f 703 699 628
f 336 342 339
f 339 411 336
f 319 320 384
f 384 383 319
f 37 47 48
f 48 38 37
f 6 34 36
f 36 46 6
f 182 183 190
f 190 246 182
f 153 159 199
f 199 195 153
f 27 37 38
f 38 28 27
f 1 4 3
f 3 2 1
f 542 644 646
f 646 544 542
f 413 418 494
f 494 491 413
f 45 46 48
f 48 47 45
f 459 464 550
f 550 542 459
f 282 286 287
f 287 283 282
f 180 181 184
f 184 182 180
f 26 28 38
f 38 36 26
f 191 195 196
f 196 192 191
f 302 303 308
f 308 360 302
f 173 217 221
f 221 175 173
f 309 310 370
f 370 369 309
f 530 532 533
f 533 631 530
f 9 13 16
f 16 12 9
f 177 180 181
f 181 178 177
f 501 502 598
f 598 597 501
f 304 365 367
f 367 306 304
f 61 118 113
f 113 63 61
f 23 33 35
f 35 25 23
f 17 18 19
f 19 20 17
f 23 24 29
f 29 30 23
f 25 35 37
f 37 27 25
f 81 85 89
f 89 87 81
f 15 27 28
f 28 16 15
f 219 278 228
f 228 220 219
f 5 6 7
f 7 8 5
f 361 362 439
f 439 438 361
f 214 215 219
f 219 218 214
f 134 136 181
f 181 180 134
f 45 53 54
f 54 46 45
f 214 217 216
f 216 215 214
f 362 369 370
f 370 364 362
f 375 376 377
f 377 378 375
f 9 10 14
f 14 13 9
f 275 283 333
f 333 330 275
f 488 489 594
f 594 498 488
f 529 530 631
f 631 629 529
f 318 319 322
f 322 321 318
f 499 500 596
f 596 595 499
