# Generated by the TriMeshRef class
# Number of vertices: 125
# Number of faces: 192
v -0.43893556849651222 0.50064270475130768 -0.43893556849651227
v -0.45301692043845193 0.44474905622493571 -0.32884638268540578
v -0.46774160624058653 0.38838530932228282 -0.21940203828552429
v -0.4826810109435109 0.33209632279851137 -0.10938291826259336
v -0.49687801905014406 0.276839766828891 0.0016942574422488532
v -0.3821994182598355 0.59768941892493466 -0.3821994182598355
v -0.39530114305862446 0.54253430048579532 -0.27179062499497153
v -0.41046815234533623 0.48652177076001024 -0.16301714011520615
v -0.42601731683615862 0.42987541767083137 -0.054068208887258329
v -0.44028098000949678 0.37475214833021353 0.056592339244980916
v -0.32701586617556444 0.694083352317029 -0.32701586617556433
v -0.33582043929412064 0.64303654213518346 -0.21412539044618517
v -0.35300249096496039 0.58799178126701501 -0.10768117512656698
v -0.36964597938597005 0.52943562331127803 -0.00050261244347285516
v -0.38404349387389375 0.47420431910242022 0.10997807153302719
v -0.28228571778327777 0.78792921013014128 -0.28228571778327771
v -0.27285458093399456 0.7502420418522715 -0.15737220879892877
v -0.30076918248609685 0.69439113964147248 -0.052381688369541247
v -0.31122439562644777 0.62945613053276817 0.05170899386749829
v -0.32740432235560368 0.57305932293968354 0.16276429812741722
v -0.25 0.878135 -0.25
v -0.25 0.878135 -0.125
v -0.229052892288304 0.7920600297391589 -0.0065830407373334227
v -0.25050682512856443 0.72597113851785822 0.10602796603594042
v -0.26976348533901023 0.66907040069284163 0.21819445595956172
v -0.32884638268540589 0.44474905622493577 -0.45301692043845188
v -0.34301772338508602 0.38875274610768851 -0.34301772338508607
v -0.35766943150425246 0.33232865915671789 -0.23343234774304814
v -0.37251838061166598 0.27576695224088887 -0.12343332430270818
v -0.38684635352202867 0.22032722468327545 -0.012469186747371908
v -0.27179062499497153 0.54253430048579532 -0.39530114305862446
v -0.2857932630698834 0.48723316538513584 -0.2857932630698834
v -0.30064211493182869 0.43063986561052714 -0.1770234679140277
v -0.31570811429196682 0.37342669236711779 -0.06795093592674778
v -0.3301743426783878 0.3180095886984613 0.042632032596398001
v -0.21412539044618517 0.64303654213518346 -0.33582043929412064
v -0.22806390982406977 0.59113725976832809 -0.22806390982406977
v -0.24407326872971441 0.53265929666029688 -0.12251619543018601
v -0.25958283267347587 0.47301542848708111 -0.0144217895100133
v -0.2743420897471236 0.41695044213202703 0.096364614353089073
v -0.15737220879892883 0.75024204185227161 -0.27285458093399456
v -0.16767113730823358 0.71200215935188271 -0.16767113730823355
v -0.1896937961174216 0.63691182917708877 -0.073375565448769997
v -0.20317890980820391 0.57228890317630743 0.037386659877862438
v -0.21845036728530992 0.51501706250414314 0.14975451899464925
v -0.125 0.878135 -0.25
v -0.125 0.878135 -0.125
v -0.13450234828041455 0.73196236166740647 -0.033810504968842713
v -0.1457638889350826 0.66816606456905836 0.090942105610548857
v -0.16161110908244339 0.6104237767150571 0.20509606231641175
v -0.21940203828552429 0.38838530932228288 -0.46774160624058647
v -0.23343234774304811 0.33232865915671789 -0.3576694315042524
v -0.24808808688294828 0.27537115050171113 -0.24808808688294826
v -0.26282344396129703 0.21843133719758309 -0.13798410216795726
v -0.27721228183389773 0.1626708647493634 -0.027088206287744276
v -0.16301714011520618 0.48652177076001024 -0.41046815234533629
v -0.17702346791402776 0.43063986561052719 -0.30064211493182863
v -0.19173334739155387 0.37297998670219651 -0.19173334739155384
v -0.20629504661542028 0.31535827781661147 -0.082154924792841005
v -0.22069265857533438 0.25963029626399636 0.028561857370964644
v -0.10768117512656698 0.58799178126701512 -0.35300249096496039
v -0.12251619543018606 0.53265929666029688 -0.24407326872971441
v -0.13663950725215909 0.47267586964636277 -0.13663950725215909
v -0.15074126640648716 0.41373449811340934 -0.027611999033717194
v -0.16522653410670957 0.35793071969504842 0.083175180274315058
v -0.052381688369541275 0.69439113964147259 -0.30076918248609685
v -0.073375565448770039 0.63691182917708877 -0.18969379611742154
v -0.082017900021165727 0.57307472103694979 -0.082017900021165671
v -0.095244499352070716 0.51250048143889926 0.026149622349857765
v -0.1098675574889855 0.45585054966962318 0.13735410362008099
v -0.0065830407373334877 0.7920600297391589 -0.229052892288304
v -0.033810504968842761 0.73196236166740647 -0.13450234828041455
v -0.026260262130456409 0.67387823686122317 -0.026260262130456378
v -0.039197949755183904 0.6094453311840099 0.081327044913640664
v -0.05315673784290581 0.55196741999052579 0.19301059037897486
v -0.10938291826259341 0.33209632279851142 -0.48268101094351085
v -0.12343332430270829 0.27576695224088899 -0.37251838061166587
v -0.13798410216795726 0.21843133719758309 -0.26282344396129703
v -0.1526669419277828 0.16122520835452647 -0.1526669419277828
v -0.16709669809727085 0.10510667871870549 -0.041926376494723361
v -0.054068208887258412 0.42987541767083148 -0.42601731683615862
v -0.067950935926747807 0.37342669236711773 -0.31570811429196688
v -0.082154924792841005 0.31535827781661147 -0.20629504661542031
v -0.096450027772664815 0.25776997042033645 -0.096450027772664843
v -0.11079001186514201 0.20170609878871781 0.014195655717592875
v -0.00050261244347293843 0.52943562331127791 -0.36964597938596999
v -0.014421789510013355 0.47301542848708106 -0.25958283267347587
v -0.027611999033717194 0.41373449811340934 -0.15074126640648716
v -0.041093904559434707 0.35554357857822738 -0.041093904559434707
v -0.05540713608936676 0.29941223086192392 0.069491261604006038
v 0.051708993867498207 0.62945613053276817 -0.31122439562644771
v 0.037386659877862355 0.57228890317630732 -0.20317890980820388
v 0.026149622349857723 0.51250048143889937 -0.095244499352070702
v 0.014191932988999414 0.45347708939196146 0.014191932988999428
v -0.00026497971764347095 0.39699601949163982 0.12461020743242382
v 0.10602796603594034 0.72597113851785822 -0.25050682512856443
v 0.090942105610548815 0.66816606456905836 -0.14576388893508263
v 0.081327044913640636 0.60944533118400979 -0.039197949755183911
v 0.070211124237699374 0.55028789470965433 0.070211124237699402
v 0.056024104137976191 0.49338159932868525 0.18058612619045472
v 0.0016942574422487977 0.27683976682889105 -0.49687801905014406
v -0.012469186747371963 0.22032722468327545 -0.38684635352202873
v -0.027088206287744332 0.16267086474936343 -0.27721228183389784
v -0.041926376494723305 0.10510667871870549 -0.1670966980972709
v -0.05643659794009287 0.048701579820315588 -0.056436597940092925
v 0.056592339244980833 0.37475214833021364 -0.44028098000949678
v 0.042632032596397945 0.31800958869846124 -0.33017434267838786
v 0.028561857370964644 0.25963029626399636 -0.22069265857533441
v 0.014195655717592875 0.20170609878871787 -0.11079001186514204
v -0.00016743752075693008 0.14539934248935471 -0.00016743752075693008
v 0.10997807153302716 0.47420431910242022 -0.3840434938738938
v 0.096364614353089018 0.41695044213202698 -0.2743420897471236
v 0.08317518027431503 0.35793071969504842 -0.16522653410670959
v 0.06949126160400601 0.29941223086192398 -0.055407136089366787
v 0.05536723003732566 0.24299587585366778 0.055367230037325632
v 0.16276429812741711 0.57305932293968342 -0.32740432235560357
v 0.14975451899464914 0.51501706250414325 -0.21845036728530998
v 0.13735410362008094 0.45585054966962318 -0.10986755748898552
v 0.12461020743242379 0.39699601949163982 -0.0002649797176434987
v 0.11059706013301465 0.34018389981421732 0.11059706013301465
v 0.21819445595956163 0.66907040069284163 -0.26976348533901023
v 0.2050960623164117 0.61042377671505688 -0.16161110908244342
v 0.19301059037897483 0.55196741999052568 -0.053156737842905845
v 0.18058612619045467 0.49338159932868525 0.056024104137976136
v 0.16654879221419555 0.43612327414174545 0.1665487922141955
f 119 124 125
f 125 120 119
f 118 123 124
f 124 119 118
f 98 99 124
f 124 123 98
f 97 98 123
f 123 122 97
f 116 121 122
f 122 117 116
f 96 97 122
f 122 121 96
f 91 96 121
f 121 116 91
f 90 115 120
f 120 95 90
f 113 118 119
f 119 114 113
f 112 117 118
f 118 113 112
f 99 100 125
f 125 124 99
f 86 91 116
f 116 111 86
f 109 114 115
f 115 110 109
f 85 110 115
f 115 90 85
f 108 113 114
f 114 109 108
f 107 112 113
f 113 108 107
f 103 108 109
f 109 104 103
f 102 107 108
f 108 103 102
f 54 79 80
f 80 55 54
f 101 106 107
f 107 102 101
f 74 75 100
f 100 99 74
f 70 95 100
f 100 75 70
f 76 81 106
f 106 101 76
f 79 104 105
f 105 80 79
f 73 74 99
f 99 98 73
f 71 72 97
f 97 96 71
f 111 116 117
f 117 112 111
f 76 101 102
f 102 77 76
f 6 11 36
f 36 31 6
f 66 71 96
f 96 91 66
f 65 90 95
f 95 70 65
f 16 17 22
f 22 21 16
f 78 103 104
f 104 79 78
f 16 21 46
f 46 41 16
f 9 10 15
f 15 14 9
f 56 61 86
f 86 81 56
f 55 80 85
f 85 60 55
f 104 109 110
f 110 105 104
f 81 86 111
f 111 106 81
f 49 50 75
f 75 74 49
f 61 66 91
f 91 86 61
f 12 13 18
f 18 17 12
f 48 49 74
f 74 73 48
f 117 122 123
f 123 118 117
f 14 15 20
f 20 19 14
f 20 45 50
f 50 25 20
f 53 78 79
f 79 54 53
f 40 65 70
f 70 45 40
f 26 31 56
f 56 51 26
f 46 47 72
f 72 71 46
f 114 119 120
f 120 115 114
f 36 41 66
f 66 61 36
f 95 120 125
f 125 100 95
f 6 7 12
f 12 11 6
f 31 36 61
f 61 56 31
f 26 51 52
f 52 27 26
f 4 5 10
f 10 9 4
f 28 53 54
f 54 29 28
f 27 52 53
f 53 28 27
f 19 20 25
f 25 24 19
f 35 60 65
f 65 40 35
f 47 48 73
f 73 72 47
f 4 29 30
f 30 5 4
f 18 19 24
f 24 23 18
f 1 6 31
f 31 26 1
f 24 25 50
f 50 49 24
f 23 24 49
f 49 48 23
f 51 76 77
f 77 52 51
f 77 102 103
f 103 78 77
f 17 18 23
f 23 22 17
f 21 22 47
f 47 46 21
f 41 46 71
f 71 66 41
f 13 14 19
f 19 18 13
f 2 3 8
f 8 7 2
f 51 56 81
f 81 76 51
f 11 12 17
f 17 16 11
f 10 35 40
f 40 15 10
f 106 111 112
f 112 107 106
f 8 9 14
f 14 13 8
f 29 54 55
f 55 30 29
f 72 73 98
f 98 97 72
f 80 105 110
f 110 85 80
f 11 16 41
f 41 36 11
f 52 77 78
f 78 53 52
f 15 40 45
f 45 20 15
f 60 85 90
f 90 65 60
f 45 70 75
f 75 50 45
f 5 30 35
f 35 10 5
f 1 26 27
f 27 2 1
f 22 23 48
f 48 47 22
f 30 55 60
f 60 35 30
f 7 8 13
f 13 12 7
f 3 4 9
f 9 8 3
f 1 2 7
f 7 6 1
f 2 27 28
f 28 3 2
f 3 28 29
f 29 4 3
