# Generated by the TriMeshRef class
# Number of vertices: 125
# Number of faces: 192
v -0.43893532285148362 0.500642260488394 -0.43893532285148362
v -0.45301662557024325 0.44474869772135894 -0.32884608987775099
v -0.46774126313737041 0.3883850324165134 -0.21940169974492801
v -0.48268062086541619 0.33209612666207305 -0.10938253337311293
v -0.49687758179024233 0.27683965372928482 0.0016946901131877357
v -0.38219925456840442 0.5976890779523828 -0.38219925456840448
v -0.39530093068519467 0.54253404608960698 -0.27179041664169346
v -0.41046789469149986 0.4865215954402804 -0.16301688759276836
v -0.42601701463271024 0.42987532035132953 -0.054067909605125586
v -0.44028063177214644 0.37475213260372131 0.056592686235211437
v -0.32701577332749426 0.69408311805038436 -0.32701577332749432
v -0.33582030705911875 0.64303639811988789 -0.21412526909557922
v -0.35300232144367794 0.58799170308880677 -0.10768101548720488
v -0.36964576553606832 0.52943561900861458 -0.00050240092600881137
v -0.38404323562962728 0.47420439494917543 0.10997833300268392
v -0.28228567789275516 0.78792909723309235 -0.28228567789275533
v -0.27285452581238406 0.75024201037036642 -0.15737217775576542
v -0.30076910206224028 0.69439113932745122 -0.052381632214476295
v -0.3112242789836222 0.62945621598040913 0.051709119616106552
v -0.32740415858007743 0.57305949051366256 0.16276447687675555
v -0.25 0.878135 -0.25
v -0.25 0.878135 -0.125
v -0.22905295329960546 0.79206013405065667 -0.0065830334593553093
v -0.25050682257826368 0.72597132582677426 0.10602801605421036
v -0.26976341966194589 0.66907067107322726 0.21819455243192976
v -0.32884608987775088 0.44474869772135905 -0.4530166255702433
v -0.34301738075788879 0.38875247229857235 -0.3430173807578889
v -0.35766903934433986 0.33232846747023986 -0.23343195863572908
v -0.37251794033607671 0.27576684150550002 -0.12343288834658556
v -0.38684586556146067 0.22032719713358578 -0.012468703093007183
v -0.27179041664169334 0.54253404608960709 -0.39530093068519478
v -0.28579300481330749 0.48723299489835892 -0.28579300481330761
v -0.30064180800318963 0.43063977498962536 -0.17702316333267187
v -0.31570776117988264 0.37342668058811235 -0.067950584465645614
v -0.3301739426088709 0.31800965905886047 0.042632431468629967
v -0.21412526909557916 0.64303639811988789 -0.33582030705911875
v -0.228063737077701 0.59113719028471912 -0.22806373707770106
v -0.24407304651932671 0.53265930215528023 -0.12251597610919628
v -0.25958256635249077 0.47301551096631839 -0.014421522893331651
v -0.27434177756162798 0.41695060659766003 0.096364928569763142
v -0.1573721777557654 0.75024201037036642 -0.27285452581238406
v -0.16767105792909387 0.71200217842903624 -0.16767105792909381
v -0.18969365463852722 0.63691192040828615 -0.073375420302462149
v -0.20317873373356282 0.57228907898429959 0.037386848985905705
v -0.21845014532472512 0.51501732234948605 0.14975475234261626
v -0.125 0.878135 -0.25
v -0.125 0.878135 -0.125
v -0.13450230624443965 0.73196254711965192 -0.033810411737065331
v -0.1457638097414013 0.66816634352511561 0.090942217219014701
v -0.16161097963358256 0.61042414043125293 0.20509621306845729
v -0.21940169974492785 0.38838503241651351 -0.46774126313737041
v -0.23343195863572896 0.33232846747023992 -0.35766903934433991
v -0.24808764630302471 0.27537104141124708 -0.24808764630302477
v -0.2628229529262664 0.21843131073102176 -0.13798361328959907
v -0.2772117416988974 0.16267092272687575 -0.027087668944335619
v -0.16301688759276828 0.48652159544028045 -0.41046789469149991
v -0.17702316333267182 0.43063977498962536 -0.30064180800318968
v -0.19173299143253214 0.37297997840856328 -0.1917329914325322
v -0.20629464147636767 0.31535835155949021 -0.0821545204255274
v -0.22069220510562881 0.25963045384005384 0.028562309653090867
v -0.10768101548720485 0.58799170308880666 -0.35300232144367794
v -0.12251597610919625 0.53265930215528035 -0.24407304651932674
v -0.13663923428722138 0.47267595843081178 -0.13663923428722138
v -0.15074094627907664 0.41373466867893383 -0.027611678207138723
v -0.16522616687381209 0.35793097353422365 0.083175548175080966
v -0.05238163221447624 0.69439113932745133 -0.30076910206224022
v -0.073375420302462149 0.63691192040828615 -0.18969365463852722
v -0.082017706840973162 0.57307490579336529 -0.082017706840973134
v -0.095244266014319456 0.51250074706859783 0.02614986281547256
v -0.10986727732608564 0.45585089975661508 0.13735438973916048
v -0.0065830334593553396 0.79206013405065678 -0.22905295329960543
v -0.033810411737065324 0.73196254711965192 -0.1345023062444396
v -0.026260158186741801 0.67387851487230999 -0.02626015818674178
v -0.03919780657692732 0.60944569646752311 0.081327202533051285
v -0.053156546847677531 0.55196787230080857 0.19301079237325464
v -0.10938253337311282 0.33209612666207311 -0.48268062086541619
v -0.1234328883465855 0.27576684150550002 -0.37251794033607666
v -0.13798361328959896 0.21843131073102179 -0.26282295292626651
v -0.15266640062841941 0.16122526601744711 -0.15266640062841946
v -0.16709610610479797 0.10510682210047761 -0.041925785389549219
v -0.05406790960512553 0.42987532035132958 -0.42601701463271019
v -0.06795058446564553 0.37342668058811235 -0.31570776117988275
v -0.082154520425527344 0.31535835155949021 -0.2062946414763677
v -0.096449572226209562 0.25777012892048839 -0.09644957222620959
v -0.11078950639591284 0.20170634266037496 0.014196160731639568
v -0.00050240092600878361 0.52943561900861458 -0.36964576553606832
v -0.014421522893331651 0.47301551096631833 -0.25958256635249066
v -0.027611678207138723 0.41373466867893383 -0.15074094627907664
v -0.041093533833805568 0.35554383474631091 -0.041093533833805568
v -0.055406716222867691 0.29941257208099886 0.069491681281212664
v 0.051709119616106566 0.62945621598040913 -0.3112242789836222
v 0.037386848985905691 0.5722890789842997 -0.20317873373356279
v 0.026149862815472533 0.51250074706859783 -0.095244266014319401
v 0.014192218662124181 0.45347744300430537 0.014192218662124237
v -0.0002646453789069414 0.39699645777763809 0.12461054247984535
v 0.10602801605421033 0.72597132582677426 -0.25050682257826368
v 0.090942217219014687 0.66816634352511561 -0.14576380974140127
v 0.081327202533051229 0.609445696467523 -0.039197806576927244
v 0.070211323609922938 0.55028834709590946 0.070211323609922993
v 0.056024351642187928 0.49338213830631489 0.18058637572395531
v 0.0016946901131878467 0.27683965372928482 -0.49687758179024233
v -0.012468703093007016 0.22032719713358581 -0.38684586556146061
v -0.027087668944335508 0.16267092272687575 -0.27721174169889745
v -0.041925785389549164 0.10510682210047767 -0.16709610610479803
v -0.056435954411293288 0.048701809758071091 -0.056435954411293399
v 0.05659268623521152 0.37475213260372142 -0.44028063177214644
v 0.04263243146863005 0.31800965905886047 -0.33017394260887095
v 0.02856230965309095 0.25963045384005379 -0.22069220510562881
v 0.014196160731639595 0.20170634266037496 -0.11078950639591287
v -0.00016688141214454832 0.14539967272148097 -0.00016688141214454832
v 0.10997833300268392 0.47420439494917543 -0.38404323562962722
v 0.096364928569763142 0.41695060659766009 -0.27434177756162792
v 0.083175548175080966 0.35793097353422365 -0.16522616687381206
v 0.069491681281212664 0.29941257208099886 -0.055406716222867719
v 0.055367700181940982 0.24299630371367859 0.055367700181940982
v 0.1627644768767556 0.57305949051366256 -0.32740415858007732
v 0.1497547523426162 0.51501732234948616 -0.21845014532472504
v 0.13735438973916042 0.45585089975661508 -0.10986727732608555
v 0.12461054247984529 0.39699645777763815 -0.00026464537890685813
v 0.11059744514296652 0.34018442555091144 0.11059744514296654
v 0.21819455243192976 0.66907067107322737 -0.26976341966194584
v 0.20509621306845727 0.61042414043125293 -0.16161097963358245
v 0.19301079237325458 0.55196787230080857 -0.05315654684767751
v 0.18058637572395519 0.49338213830631489 0.056024351642188011
v 0.16654909200833956 0.4361239007458716 0.16654909200833964
f 119 124 125
f 125 120 119
f 118 123 124
f 124 119 118
f 98 99 124
f 124 123 98
f 97 98 123
f 123 122 97
f 116 121 122
f 122 117 116
f 96 97 122
f 122 121 96
f 91 96 121
f 121 116 91
f 90 115 120
f 120 95 90
f 113 118 119
f 119 114 113
f 112 117 118
f 118 113 112
f 99 100 125
f 125 124 99
f 86 91 116
f 116 111 86
f 109 114 115
f 115 110 109
f 85 110 115
f 115 90 85
f 108 113 114
f 114 109 108
f 107 112 113
f 113 108 107
f 103 108 109
f 109 104 103
f 102 107 108
f 108 103 102
f 54 79 80
f 80 55 54
f 101 106 107
f 107 102 101
f 74 75 100
f 100 99 74
f 70 95 100
f 100 75 70
f 76 81 106
f 106 101 76
f 79 104 105
f 105 80 79
f 73 74 99
f 99 98 73
f 71 72 97
f 97 96 71
f 111 116 117
f 117 112 111
f 76 101 102
f 102 77 76
f 6 11 36
f 36 31 6
f 66 71 96
f 96 91 66
f 65 90 95
f 95 70 65
f 16 17 22
f 22 21 16
f 78 103 104
f 104 79 78
f 16 21 46
f 46 41 16
f 9 10 15
f 15 14 9
f 56 61 86
f 86 81 56
f 55 80 85
f 85 60 55
f 104 109 110
f 110 105 104
f 81 86 111
f 111 106 81
f 49 50 75
f 75 74 49
f 61 66 91
f 91 86 61
f 12 13 18
f 18 17 12
f 48 49 74
f 74 73 48
f 117 122 123
f 123 118 117
f 14 15 20
f 20 19 14
f 20 45 50
f 50 25 20
f 53 78 79
f 79 54 53
f 40 65 70
f 70 45 40
f 26 31 56
f 56 51 26
f 46 47 72
f 72 71 46
f 114 119 120
f 120 115 114
f 36 41 66
f 66 61 36
f 95 120 125
f 125 100 95
f 6 7 12
f 12 11 6
f 31 36 61
f 61 56 31
f 26 51 52
f 52 27 26
f 4 5 10
f 10 9 4
f 28 53 54
f 54 29 28
f 27 52 53
f 53 28 27
f 19 20 25
f 25 24 19
f 35 60 65
f 65 40 35
f 47 48 73
f 73 72 47
f 4 29 30
f 30 5 4
f 18 19 24
f 24 23 18
f 1 6 31
f 31 26 1
f 24 25 50
f 50 49 24
f 23 24 49
f 49 48 23
f 51 76 77
f 77 52 51
f 77 102 103
f 103 78 77
f 17 18 23
f 23 22 17
f 21 22 47
f 47 46 21
f 41 46 71
f 71 66 41
f 13 14 19
f 19 18 13
f 2 3 8
f 8 7 2
f 51 56 81
f 81 76 51
f 11 12 17
f 17 16 11
f 10 35 40
f 40 15 10
f 106 111 112
f 112 107 106
f 8 9 14
f 14 13 8
f 29 54 55
f 55 30 29
f 72 73 98
f 98 97 72
f 80 105 110
f 110 85 80
f 11 16 41
f 41 36 11
f 52 77 78
f 78 53 52
f 15 40 45
f 45 20 15
f 60 85 90
f 90 65 60
f 45 70 75
f 75 50 45
f 5 30 35
f 35 10 5
f 1 26 27
f 27 2 1
f 22 23 48
f 48 47 22
f 30 55 60
f 60 35 30
f 7 8 13
f 13 12 7
f 3 4 9
f 9 8 3
f 1 2 7
f 7 6 1
f 2 27 28
f 28 3 2
f 3 28 29
f 29 4 3
