# Generated by the TriMeshRef class
# Number of vertices: 194
# Number of faces: 384
v -0.26087432680004508 0.37111481129022678 0.25414066259461254
v -0.13053475631450237 0.39057215790474814 0.25383677538513094
v -7.2422847194759437e-18 0.39758267085994814 0.25436159893267285
v 0.13053475631450237 0.3905721579047482 0.25383677538513089
v 0.26087432680004508 0.37111481129022683 0.25414066259461249
v -0.28201946445858789 0.48969290876065125 0.2513652423556243
v -0.14207198637854279 0.51130011505748219 0.25038421808288081
v -5.1689596146818109e-18 0.51860616398641746 0.25010000851912967
v 0.14207198637854276 0.5113001150574823 0.25038421808288081
v 0.28201946445858789 0.48969290876065136 0.25136524235562424
v -0.31022782894085882 0.61089486927539138 0.25004549780709845
v -0.15599418003043505 0.63513439518996639 0.25009680913239846
v 8.7444494651312702e-18 0.64300961215922903 0.25004102810621892
v 0.15599418003043508 0.63513439518996639 0.25009680913239835
v 0.31022782894085882 0.61089486927539149 0.25004549780709839
v -0.33828152088885999 0.73388894534289462 0.24905104133495254
v -0.1696738414348247 0.75998737458505572 0.25003850847052511
v 3.1310440968429182e-17 0.76898349648283004 0.25026117484811045
v 0.16967384143482467 0.75998737458505572 0.25003850847052506
v 0.33828152088886004 0.73388894534289462 0.24905104133495251
v -0.36138029251901344 0.86031938963564969 0.24668112260308839
v -0.18225018978905733 0.88729904849028252 0.2468863650494148
v 3.9431544753183203e-17 0.89707483513315611 0.24634703049411999
v 0.18225018978905733 0.88729904849028252 0.24688636504941477
v 0.36138029251901344 0.8603193896356498 0.24668112260308844
v -0.36108915865644192 0.85898463111370793 0.1234839221488058
v -0.18208370369651644 0.88587408206496421 0.12363734610359066
v 1.7139728476522277e-17 0.89543617255437646 0.12350378395388618
v 0.18208370369651644 0.88587408206496421 0.12363734610359062
v 0.36108915865644192 0.85898463111370793 0.12348392214880585
v -0.3609075325925003 0.85862813551221018 2.0660751219717072e-17
v -0.18199507202284476 0.88553236127432233 -1.8562271722804512e-17
v 6.0098369640816429e-18 0.89505984214209355 1.7697909962528617e-17
v 0.18199507202284476 0.88553236127432244 1.3994780921508944e-17
v 0.3609075325925003 0.85862813551221018 3.1369647627500409e-17
v -0.36108915865644192 0.85898463111370793 -0.1234839221488058
v -0.18208370369651641 0.8858740820649641 -0.12363734610359062
v 7.1465838299739313e-19 0.89543617255437646 -0.1235037839538862
v 0.18208370369651641 0.88587408206496421 -0.12363734610359063
v 0.36108915865644187 0.85898463111370793 -0.12348392214880578
v -0.36138029251901338 0.8603193896356498 -0.24668112260308839
v -0.1822501897890573 0.8872990484902824 -0.24688636504941477
v -7.1031423638904005e-18 0.89707483513315611 -0.24634703049411996
v 0.18225018978905727 0.8872990484902824 -0.2468863650494148
v 0.36138029251901338 0.86031938963564991 -0.24668112260308828
v -0.33828152088885999 0.73388894534289462 -0.24905104133495251
v -0.16967384143482467 0.75998737458505572 -0.250038508470525
v -6.6449413890504259e-18 0.76898349648283015 -0.25026117484811045
v 0.1696738414348247 0.75998737458505572 -0.250038508470525
v 0.33828152088885993 0.73388894534289462 -0.24905104133495251
v -0.31022782894085882 0.61089486927539149 -0.25004549780709839
v -0.15599418003043508 0.63513439518996639 -0.25009680913239835
v -3.41233979278837e-17 0.64300961215922914 -0.25004102810621887
v 0.15599418003043505 0.63513439518996639 -0.2500968091323984
v 0.31022782894085876 0.61089486927539149 -0.25004549780709834
v -0.28201946445858789 0.48969290876065125 -0.25136524235562435
v -0.14207198637854285 0.51130011505748219 -0.25038421808288086
v -4.5041301925953895e-17 0.51860616398641746 -0.25010000851912972
v 0.14207198637854279 0.51130011505748219 -0.25038421808288086
v 0.28201946445858789 0.48969290876065125 -0.25136524235562441
v -0.26087432680004513 0.37111481129022678 -0.2541406625946126
v -0.13053475631450234 0.3905721579047482 -0.25383677538513105
v -4.9850544555326034e-17 0.39758267085994814 -0.25436159893267296
v 0.13053475631450231 0.39057215790474809 -0.25383677538513105
v 0.26087432680004513 0.37111481129022683 -0.2541406625946126
v -0.26075393530287472 0.36946972558697205 -0.12688588722167402
v -0.13043963184252638 0.38886997827614572 -0.12671604653617977
v -5.9480325724255167e-18 0.39568134093039803 -0.12680841984878047
v 0.13043963184252635 0.38886997827614578 -0.12671604653617977
v 0.26075393530287472 0.36946972558697216 -0.12688588722167402
v -0.26093669864792529 0.3690413935002238 -2.4285527381853541e-17
v -0.13052831996339556 0.38848440637765885 -5.1290543432789642e-17
v -1.6133176448756597e-17 0.39527724496950772 -3.90806797769826e-17
v 0.13052831996339556 0.38848440637765896 -5.4705897719029866e-17
v 0.26093669864792524 0.36904139350022386 -4.7396966469079913e-17
v -0.26075393530287472 0.36946972558697211 0.12688588722167399
v -0.13043963184252635 0.38886997827614578 0.12671604653617966
v -8.7959399239889932e-19 0.39568134093039797 0.12680841984878038
v 0.13043963184252635 0.38886997827614578 0.12671604653617968
v 0.26075393530287472 0.36946972558697222 0.12688588722167396
v 0.28178302470869609 0.48839036465435937 -0.12565970958111211
v 0.28167894556118722 0.48804572814018521 -3.2209809538176249e-17
v 0.28178302470869615 0.48839036465435937 0.125659709581112
v 0.31005351024769318 0.60977639099864622 -0.12505740559966499
v 0.30999921653325629 0.60938643534354497 -2.5069662287245754e-17
v 0.31005351024769318 0.60977639099864611 0.12505740559966494
v 0.33817464418633325 0.7326617693772759 -0.12454968382843547
v 0.33821660423090483 0.73229259119893575 1.8876976552789008e-17
v 0.33817464418633325 0.7326617693772759 0.1245496838284355
v -0.28178302470869615 0.48839036465435937 -0.12565970958111208
v -0.28167894556118728 0.48804572814018515 -2.3780924987233542e-17
v -0.28178302470869615 0.48839036465435931 0.125659709581112
v -0.31005351024769318 0.60977639099864622 -0.12505740559966494
v -0.30999921653325629 0.60938643534354497 -8.9440273111559245e-18
v -0.31005351024769318 0.60977639099864622 0.12505740559966499
v -0.33817464418633331 0.73266176937727601 -0.1245496838284355
v -0.33821660423090483 0.73229259119893575 1.8500862765018096e-17
v -0.33817464418633331 0.73266176937727601 0.1245496838284355
v -0.20387513348791955 0.44066999825327707 0.25243172460456215
v -0.068151685673261297 0.45451527695214899 0.25217065022995355
v 0.068151685673261284 0.45451527695214899 0.25217065022995355
v 0.20387513348791952 0.44066999825327718 0.25243172460456209
v -0.22257836495210614 0.5617555720708729 0.25047294184450047
v -0.074516541602244468 0.5770125715982739 0.25015551596015695
v 0.074516541602244468 0.5770125715982739 0.25015551596015695
v 0.22257836495210614 0.56175557207087301 0.25047294184450047
v -0.24354434282374465 0.68497639609832706 0.24980796418624363
v -0.081417005366314923 0.7017787196042703 0.25010938013931322
v 0.081417005366314951 0.7017787196042703 0.25010938013931322
v 0.24354434282374465 0.68497639609832706 0.24980796418624357
v -0.26289646115793885 0.81037368951347077 0.24816425936449521
v -0.087981007805970485 0.82833618867283121 0.24838326971554259
v 0.087981007805970513 0.82833618867283121 0.24838326971554256
v 0.26289646115793885 0.81037368951347077 0.24816425936449521
v -0.27170083616525731 0.87311928782615111 0.18517218897622492
v -0.091083473371393414 0.89142103456069477 0.18509363140025292
v 0.091083473371393456 0.89142103456069477 0.18509363140025289
v 0.27170083616525731 0.87311928782615111 0.18517218897622492
v -0.27151886674207587 0.87225480249130116 0.061780317063099111
v -0.091019693929840301 0.89047561450893908 0.061785282514369211
v 0.091019693929840301 0.89047561450893919 0.061785282514369211
v 0.27151886674207587 0.87225480249130116 0.061780317063099131
v -0.27151886674207587 0.87225480249130116 -0.061780317063099104
v -0.091019693929840301 0.89047561450893908 -0.061785282514369204
v 0.091019693929840301 0.89047561450893919 -0.061785282514369197
v 0.27151886674207582 0.87225480249130116 -0.06178031706309909
v -0.27170083616525725 0.87311928782615111 -0.18517218897622489
v -0.091083473371393428 0.89142103456069477 -0.18509363140025289
v 0.091083473371393414 0.89142103456069477 -0.18509363140025289
v 0.27170083616525725 0.87311928782615111 -0.18517218897622487
v -0.26289646115793885 0.81037368951347077 -0.24816425936449515
v -0.087981007805970499 0.82833618867283121 -0.24838326971554253
v 0.087981007805970485 0.82833618867283121 -0.24838326971554253
v 0.26289646115793885 0.81037368951347077 -0.24816425936449515
v -0.24354434282374465 0.68497639609832706 -0.24980796418624357
v -0.081417005366314937 0.7017787196042703 -0.25010938013931316
v 0.081417005366314923 0.7017787196042703 -0.25010938013931316
v 0.2435443428237446 0.68497639609832706 -0.24980796418624357
v -0.22257836495210617 0.5617555720708729 -0.25047294184450047
v -0.074516541602244496 0.5770125715982739 -0.25015551596015695
v 0.07451654160224444 0.5770125715982739 -0.25015551596015695
v 0.22257836495210614 0.5617555720708729 -0.25047294184450053
v -0.20387513348791955 0.44066999825327707 -0.2524317246045622
v -0.068151685673261325 0.45451527695214899 -0.25217065022995366
v 0.068151685673261256 0.45451527695214899 -0.25217065022995366
v 0.20387513348791952 0.44066999825327707 -0.2524317246045622
v -0.19565066256498714 0.38000666826452317 -0.19039484293439934
v -0.065243597039257195 0.39317653699281002 -0.19043071017569105
v 0.065243597039257153 0.39317653699281002 -0.19043071017569105
v 0.19565066256498712 0.38000666826452323 -0.19039484293439934
v -0.1956646464391805 0.37896637593525012 -0.063400483439463459
v -0.065241987951480479 0.39207824263842761 -0.063381116596240086
v 0.065241987951480479 0.39207824263842761 -0.063381116596240086
v 0.19566464643918047 0.37896637593525018 -0.063400483439463473
v -0.19566464643918047 0.37896637593525012 0.06340048343946339
v -0.065241987951480479 0.39207824263842755 0.063381116596239989
v 0.065241987951480479 0.39207824263842761 0.063381116596239989
v 0.19566464643918047 0.37896637593525023 0.06340048343946339
v -0.19565066256498714 0.38000666826452317 0.19039484293439929
v -0.065243597039257181 0.39317653699281002 0.19043071017569096
v 0.065243597039257181 0.39317653699281002 0.19043071017569096
v 0.19565066256498714 0.38000666826452328 0.19039484293439926
v 0.27135768781755093 0.42966695257305243 -0.18951287543825579
v 0.27128815105517079 0.42873680297043515 -0.063136399200696552
v 0.27128815105517085 0.42873680297043515 0.063136399200696469
v 0.27135768781755099 0.42966695257305243 0.18951287543825568
v 0.29602095708895904 0.54968863342226215 -0.18803196383587498
v 0.29587867426270825 0.548899729784184 -0.06267927879519429
v 0.29587867426270825 0.548899729784184 0.062679278795194221
v 0.29602095708895904 0.54968863342226215 0.18803196383587489
v 0.32418437606593631 0.67180549374855203 -0.18717590714253782
v 0.32411099379954689 0.67102929672960077 -0.062401772357025119
v 0.32411099379954689 0.67102929672960077 0.062401772357025112
v 0.32418437606593631 0.67180549374855203 0.18717590714253785
v 0.34973140406266212 0.7964636838673822 -0.1859414424788205
v 0.34959698491654506 0.79564178180053258 -0.062008401494310299
v 0.34959698491654512 0.79564178180053258 0.062008401494310347
v 0.34973140406266218 0.7964636838673822 0.18594144247882058
v -0.27135768781755099 0.42966695257305237 -0.18951287543825576
v -0.27128815105517085 0.42873680297043509 -0.063136399200696539
v -0.27128815105517085 0.42873680297043509 0.063136399200696483
v -0.27135768781755099 0.42966695257305237 0.18951287543825571
v -0.29602095708895904 0.54968863342226215 -0.18803196383587495
v -0.29587867426270825 0.548899729784184 -0.062679278795194263
v -0.29587867426270825 0.548899729784184 0.062679278795194249
v -0.29602095708895904 0.54968863342226215 0.18803196383587495
v -0.32418437606593631 0.67180549374855203 -0.18717590714253785
v -0.32411099379954689 0.67102929672960077 -0.062401772357025112
v -0.32411099379954689 0.67102929672960077 0.062401772357025126
v -0.32418437606593631 0.67180549374855203 0.18717590714253787
v -0.34973140406266218 0.7964636838673822 -0.18594144247882055
v -0.34959698491654512 0.79564178180053258 -0.062008401494310313
v -0.34959698491654512 0.79564178180053258 0.062008401494310333
v -0.34973140406266218 0.7964636838673822 0.18594144247882055
f 24 29 117
f 30 89 177
f 68 73 152
f 73 78 156
f 34 39 125
f 34 126 39
f 39 126 40
f 87 176 88
f 85 172 88
f 88 177 89
f 29 122 34
f 33 38 124
f 28 121 33
f 33 121 34
f 15 170 86
f 53 54 141
f 48 53 136
f 53 137 54
f 48 137 53
f 38 39 129
f 48 49 137
f 48 133 49
f 94 95 189
f 63 68 148
f 85 88 173
f 14 19 109
f 38 125 39
f 14 110 19
f 86 89 174
f 51 52 139
f 51 93 187
f 96 97 192
f 93 188 96
f 47 136 52
f 51 135 52
f 93 96 187
f 47 52 135
f 6 186 92
f 2 100 7
f 8 101 9
f 17 22 111
f 16 17 111
f 26 115 27
f 26 27 119
f 54 138 55
f 49 54 137
f 12 17 107
f 49 138 54
f 32 37 123
f 39 40 130
f 28 117 29
f 18 109 19
f 18 19 113
f 7 100 8
f 83 86 170
f 83 169 86
f 81 168 82
f 85 86 169
f 8 105 13
f 95 98 189
f 28 29 121
f 6 99 7
f 58 145 63
f 59 142 60
f 27 116 28
f 15 86 174
f 9 102 10
f 24 118 29
f 91 94 184
f 70 163 81
f 14 15 110
f 31 97 193
f 95 190 98
f 43 133 48
f 73 74 157
f 16 98 190
f 81 84 168
f 34 35 126
f 76 182 92
f 18 113 23
f 67 152 72
f 56 90 183
f 11 12 107
f 59 146 64
f 68 149 69
f 75 80 158
f 75 165 80
f 10 83 170
f 10 166 83
f 52 53 140
f 57 58 144
f 75 82 165
f 88 89 173
f 11 103 12
f 91 181 92
f 33 125 38
f 56 179 90
f 7 12 103
f 97 98 193
f 78 79 161
f 50 87 171
f 19 114 24
f 6 7 103
f 82 169 83
f 46 131 47
f 80 83 166
f 36 123 37
f 38 43 128
f 44 45 134
f 3 78 161
f 6 92 182
f 31 119 32
f 44 49 133
f 40 176 87
f 70 75 154
f 8 9 105
f 16 21 194
f 22 27 115
f 20 25 114
f 72 152 73
f 44 130 45
f 30 177 35
f 68 69 153
f 52 140 57
f 71 151 72
f 56 57 143
f 90 93 183
f 55 171 84
f 22 112 23
f 12 13 108
f 53 141 58
f 64 69 149
f 76 155 77
f 50 55 138
f 33 34 125
f 16 107 17
f 21 26 194
f 70 164 75
f 21 115 26
f 14 106 15
f 91 92 185
f 4 102 9
f 74 75 158
f 71 72 155
f 60 163 65
f 27 28 120
f 72 77 155
f 26 98 194
f 81 167 84
f 66 151 71
f 86 173 89
f 71 181 91
f 73 153 74
f 77 156 78
f 2 160 3
f 90 184 93
f 22 23 116
f 46 96 191
f 51 139 56
f 84 87 172
f 51 183 93
f 18 23 112
f 55 60 142
f 43 129 44
f 30 178 89
f 29 118 30
f 45 50 134
f 67 72 151
f 17 18 112
f 26 193 98
f 6 103 11
f 23 24 117
f 41 127 42
f 60 81 163
f 37 128 42
f 85 173 86
f 63 149 68
f 73 157 78
f 25 178 30
f 64 150 69
f 26 119 31
f 11 95 186
f 74 154 75
f 10 15 106
f 63 145 64
f 10 170 15
f 15 20 110
f 1 99 6
f 37 38 128
f 11 190 95
f 23 117 28
f 9 10 106
f 49 50 138
f 36 41 191
f 65 70 150
f 46 187 96
f 27 120 32
f 62 67 147
f 7 8 104
f 55 167 60
f 79 158 80
f 51 56 183
f 12 104 13
f 9 14 105
f 42 132 47
f 66 147 67
f 4 161 79
f 2 77 160
f 3 101 8
f 24 114 25
f 31 36 192
f 41 42 131
f 19 110 20
f 1 159 2
f 84 172 85
f 62 63 148
f 94 97 188
f 54 59 141
f 19 24 113
f 46 47 135
f 32 33 124
f 12 108 17
f 64 146 65
f 9 106 14
f 71 91 180
f 2 7 99
f 55 84 167
f 45 175 50
f 92 186 95
f 1 6 182
f 57 140 58
f 46 135 51
f 87 88 172
f 13 18 108
f 42 128 43
f 56 61 179
f 29 30 122
f 76 77 159
f 67 68 152
f 50 175 87
f 36 37 127
f 36 96 192
f 69 154 74
f 42 43 132
f 69 150 70
f 82 85 169
f 17 112 22
f 39 44 129
f 23 113 24
f 19 20 114
f 21 22 115
f 4 5 102
f 17 108 18
f 26 31 193
f 46 51 187
f 32 124 37
f 62 144 63
f 93 184 94
f 11 107 16
f 11 16 190
f 57 62 143
f 37 124 38
f 61 143 62
f 72 73 156
f 58 63 144
f 50 171 55
f 72 156 77
f 58 141 59
f 97 189 98
f 24 25 118
f 31 123 36
f 43 48 132
f 54 55 142
f 76 92 181
f 16 111 21
f 2 3 100
f 13 109 18
f 66 71 180
f 61 62 147
f 22 116 27
f 62 148 67
f 8 13 104
f 3 4 101
f 1 182 76
f 42 47 131
f 39 130 44
f 1 2 99
f 82 83 165
f 37 42 127
f 6 11 186
f 56 143 61
f 59 60 146
f 84 85 168
f 71 155 76
f 60 65 146
f 91 185 94
f 31 32 123
f 96 188 97
f 57 144 62
f 81 82 164
f 4 162 5
f 1 76 159
f 4 9 101
f 40 87 175
f 78 157 79
f 60 167 81
f 31 192 97
f 84 171 87
f 90 180 91
f 52 57 139
f 5 10 102
f 5 166 10
f 3 8 100
f 35 176 40
f 56 139 57
f 38 129 43
f 59 64 145
f 77 78 160
f 94 185 95
f 79 80 162
f 44 134 49
f 63 64 149
f 54 142 59
f 52 136 53
f 7 104 12
f 15 174 20
f 58 59 145
f 36 127 41
f 61 147 66
f 69 74 153
f 21 111 22
f 70 81 164
f 30 35 122
f 47 132 48
f 49 134 50
f 3 160 78
f 35 40 126
f 20 174 89
f 80 165 83
f 74 79 157
f 41 131 46
f 53 58 140
f 66 180 90
f 75 164 82
f 28 33 120
f 4 79 162
f 71 76 181
f 66 90 179
f 40 175 45
f 40 45 130
f 20 89 178
f 74 158 79
f 5 80 166
f 5 162 80
f 2 159 77
f 64 65 150
f 3 161 4
f 27 32 119
f 35 88 176
f 23 28 116
f 13 105 14
f 34 122 35
f 41 46 191
f 47 48 136
f 43 44 133
f 92 95 185
f 61 66 179
f 68 153 73
f 82 168 85
f 20 178 25
f 36 191 96
f 25 30 118
f 35 177 88
f 29 34 121
f 93 94 188
f 65 163 70
f 94 189 97
f 13 14 109
f 69 70 154
f 67 148 68
f 66 67 151
f 32 120 33
f 16 194 98
f 90 91 184
