# Generated by the TriMeshRef class
# Number of vertices: 194
# Number of faces: 384
v -0.49687801912310847 0.27683976684963563 0.001694257370334129
v -0.38684635360419412 0.22032722468883059 -0.012469186828723333
v -0.27721228192541231 0.16267086473958356 -0.027088206378749702
v -0.16709669819785805 0.10510667869369933 -0.041926376595188664
v -0.056436598049489806 0.048701579780112636 -0.056436598049489917
v -0.44028098006673749 0.37475214833389758 0.056592339188004437
v -0.33017434274503665 0.31800958868666585 0.042632032529986014
v -0.22069265865162971 0.25963029623644485 0.028561857294968268
v -0.11079001195061411 0.20170609874580769 0.014195655632279702
v -0.00016743761497162168 0.14539934243126995 -0.0001674376149716772
v -0.38404349391503456 0.47420431909014527 0.10997807149109004
v -0.27434208979818897 0.41695044210349319 0.096364614301614693
v -0.1652265341677549 0.35793071965023859 0.083175180213149597
v -0.0554071361597058 0.29941223080155455 0.069491261533726922
v 0.055367229958235342 0.24299587577802384 0.055367229958235259
v -0.32740432237920608 0.57305932291117123 0.16276429810019269
v -0.21845036731991896 0.51501706245833945 0.14975451895735442
v -0.10986755753436898 0.45585054960738297 0.13735410357324337
v -0.00026497977269349104 0.39699601941379153 0.12461020737715667
v 0.11059706006906889 0.34018389972100566 0.1105970600690688
v -0.26976348534386835 0.66907040064549539 0.21819445594733028
v -0.16161110909978346 0.6104237766499987 0.2050960622942265
v -0.053156737872015025 0.55196741990960596 0.1930105903474626
v 0.056024104098530314 0.49338159923277253 0.18058612615060687
v 0.16654879216548085 0.43612327403067858 0.16654879216548069
v -0.25050682512055716 0.72597113848559336 0.106027966032225
v -0.14576388894316386 0.66816606451887228 0.090942105594601169
v -0.039197949775748475 0.60944533111857369 0.081327044889642125
v 0.0702111242067327 0.55028789462907302 0.070211124206732589
v 0.18058612615060693 0.49338159923277247 0.056024104098530161
v -0.22905289226733777 0.79206002972178413 -0.0065830407342989629
v -0.13450234828229932 0.73196236163304207 -0.033810504983167747
v -0.026260262144993159 0.67387823681084325 -0.026260262144993166
v 0.08132704488964218 0.6094453311185738 -0.039197949775748565
v 0.19301059034746262 0.55196741990960596 -0.053156737872015233
v -0.25 0.878135 -0.125
v -0.125 0.878135 -0.125
v -0.033810504983167768 0.73196236163304207 -0.13450234828229937
v 0.090942105594601141 0.66816606451887228 -0.14576388894316397
v 0.20509606229422642 0.61042377664999881 -0.16161110909978368
v -0.25 0.878135 -0.25
v -0.125 0.878135 -0.25
v -0.0065830407342990539 0.79206002972178424 -0.22905289226733794
v 0.10602796603222488 0.72597113848559358 -0.25050682512055733
v 0.21819445594733014 0.66907040064549539 -0.2697634853438684
v -0.28228571778732864 0.78792921014979378 -0.28228571778732858
v -0.15737220880003852 0.75024204185803156 -0.27285458094247661
v -0.052381688372853695 0.69439113964351118 -0.30076918249542828
v 0.051708993850331009 0.62945613051895088 -0.31122439564160492
v 0.16276429810019255 0.57305932291117134 -0.3274043223792063
v -0.32701586618833933 0.69408335236010332 -0.32701586618833922
v -0.21412539046352963 0.64303654216145201 -0.33582043931432853
v -0.10768117515006584 0.58799178128195406 -0.35300249099097758
v -0.00050261247639338258 0.52943562331305616 -0.36964597941936944
v 0.10997807149108982 0.47420431909014527 -0.38404349391503467
v -0.38219941828461468 0.59768941898692929 -0.38219941828461462
v -0.27179062502778817 0.54253430053203577 -0.39530114309246911
v -0.16301714015565441 0.48652177079197001 -0.41046815238710305
v -0.054068208935872747 0.42987541768884951 -0.42601731688544331
v 0.05659233918800427 0.37475214833389758 -0.44028098006673766
v -0.43893556853586485 0.50064270483164552 -0.43893556853586468
v -0.32884638273316763 0.44474905628985406 -0.45301692048679587
v -0.21940203834123279 0.38838530937241289 -0.46774160629744987
v -0.10938291832628663 0.3320963228340561 -0.48268101100846361
v 0.0016942573703339625 0.27683976684963568 -0.49687801912310836
v -0.45301692048679593 0.44474905628985406 -0.32884638273316757
v -0.34301772344196413 0.38875274615736255 -0.34301772344196402
v -0.23343234780804917 0.33232865919154703 -0.3576694315699438
v -0.1234333243757825 0.27576695226125209 -0.37251838068564785
v -0.012469186828723444 0.22032722468883065 -0.38684635360419417
v -0.46774160629744987 0.38838530937241283 -0.2194020383412327
v -0.3576694315699438 0.33232865919154697 -0.23343234780804911
v -0.24808808695713364 0.27537115052170069 -0.24808808695713364
v -0.13798410225051794 0.21843133720281416 -0.26282344404427926
v -0.027088206378749813 0.16267086473958361 -0.27721228192541242
v -0.48268101100846356 0.33209632283405605 -0.10938291832628649
v -0.3725183806856478 0.27576695226125203 -0.12343332437578242
v -0.26282344404427926 0.21843133720281413 -0.13798410225051788
v -0.15266694201954562 0.16122520834473342 -0.15266694201954567
v -0.041926376595188608 0.10510667869369938 -0.16709669819785827
v 0.042632032529985903 0.31800958868666596 -0.33017434274503676
v 0.02856185729496824 0.25963029623644485 -0.22069265865162987
v 0.014195655632279758 0.20170609874580769 -0.11079001195061422
v 0.09636461430161461 0.41695044210349319 -0.27434208979818914
v 0.083175180213149541 0.35793071965023859 -0.16522653416775507
v 0.06949126153372695 0.29941223080155455 -0.055407136159705911
v 0.14975451895735437 0.51501706245833956 -0.21845036731991913
v 0.13735410357324335 0.45585054960738297 -0.10986755753436911
v 0.12461020737715672 0.39699601941379153 -0.00026497977269362982
v -0.39530114309246916 0.54253430053203566 -0.27179062502778811
v -0.41046815238710299 0.48652177079197007 -0.16301714015565433
v -0.42601731688544331 0.42987541768884957 -0.05406820893587258
v -0.33582043931432853 0.64303654216145201 -0.21412539046352955
v -0.35300249099097764 0.58799178128195417 -0.10768117515006571
v -0.36964597941936939 0.52943562331305605 -0.00050261247639321605
v -0.27285458094247667 0.75024204185803167 -0.15737220880003844
v -0.30076918249542817 0.69439113964351118 -0.052381688372853563
v -0.31122439564160487 0.62945613051895077 0.05170899385033112
v -0.41354492388476916 0.29748218213975741 0.022112360564900319
v -0.30373140923156816 0.24015949358788122 0.0079091241543703117
v -0.19394791268137856 0.18227848460388385 -0.0065642675116726057
v -0.083622686453233397 0.1252284249127224 -0.021083689156842611
v -0.35721022663124935 0.39597912455355055 0.076391764377673838
v -0.24760890634065252 0.33813026166921067 0.062683421084929664
v -0.1380290852324261 0.2796698363585115 0.048855988668531164
v -0.027749338941763985 0.22237838693916406 0.0347216773773176
v -0.30106006835308713 0.49480778664078728 0.12971537571256297
v -0.19197163720505797 0.43643719345486354 0.11666210426134052
v -0.082691551908630812 0.37754737986824188 0.10365768817431914
v 0.027573043523726221 0.31989700642859387 0.090016439734546899
v -0.24430732103569416 0.59189264066625125 0.18395233382477602
v -0.13577144295652155 0.53331470215633181 0.17130381879307177
v -0.026816292770136738 0.47454889704088832 0.15889025686211744
v 0.083226244140096689 0.41667119809956216 0.14558554644057831
v -0.20691132712684321 0.66840784507498996 0.15506514746709574
v -0.099932421422677706 0.61000064804926268 0.1425939507814831
v 0.0084701351643748785 0.55127056122250628 0.13128372139861105
v 0.1183425366553377 0.49329359178132415 0.11834253665533757
v -0.18995648865333953 0.72953989858982293 0.039144131477339868
v -0.086431112286551204 0.67086299852033282 0.0280495958390206
v 0.021519989293908311 0.61076419841926599 0.021519989293908248
v 0.13128372139861111 0.55127056122250628 0.0084701351643747397
v -0.18463881013740926 0.82007309783870652 -0.072598386429366682
v -0.07989327885261506 0.75398449001923185 -0.079893278852615074
v 0.0280495958390206 0.67086299852033282 -0.086431112286551259
v 0.14259395078148307 0.61000064804926268 -0.099932421422677872
v -0.1875 0.878135 -0.1875
v -0.07259838642936671 0.82007309783870652 -0.18463881013740932
v 0.039144131477339798 0.72953989858982304 -0.18995648865333964
v 0.15506514746709565 0.66840784507498996 -0.20691132712684335
v -0.20366448164684176 0.82361031300195642 -0.26378507468245127
v -0.085334234476797777 0.77870705280583186 -0.26316916392631068
v 0.024693057693850828 0.71046960959245997 -0.27288832388123208
v 0.13467392848251969 0.64938924814030285 -0.28972475712130918
v -0.24519979580980902 0.71882278663234511 -0.30449415105811822
v -0.1328901156966219 0.6689153762362372 -0.31561167343580276
v -0.027214120537245465 0.61031866868936802 -0.33366051213684506
v 0.080987187741304992 0.55153884895833083 -0.34807954783880385
v -0.2987828249910679 0.61933590351013013 -0.36008421671993784
v -0.18915358269925947 0.56502109869185302 -0.37364805644621951
v -0.081317284179496546 0.50845614826895758 -0.38978348492072329
v 0.027999897316707045 0.45206687710648724 -0.4049969425716462
v -0.35544299864535883 0.52140387016011613 -0.41736326259993606
v -0.24576404656446077 0.46554760924656818 -0.43163195556595446
v -0.13646757643976165 0.40921970517182216 -0.44672702164461497
v -0.026291132675955287 0.35339091392660971 -0.46146433177093826
v -0.39095414879944812 0.44472339089217905 -0.39095414879944806
v -0.28117462308110341 0.38855394275279415 -0.40536142044903839
v -0.17141265721283777 0.332144310914817 -0.4201526073903763
v -0.060897793040114667 0.27625756665844364 -0.43473094110535349
v -0.40536142044903845 0.38855394275279409 -0.28117462308110336
v -0.29555189744427268 0.3321953037655393 -0.29555189744427263
v -0.1857344653478708 0.27547452479432849 -0.31027483581425119
v -0.075243704958443403 0.21929909472312012 -0.32485011506488343
v -0.4201526073903763 0.332144310914817 -0.17141265721283766
v -0.31027483581425114 0.27547452479432843 -0.18573446534787075
v -0.20039064381786914 0.21836475831801561 -0.20039064381786909
v -0.089916406811000549 0.16185852224520764 -0.21494984154677393
v -0.43473094110535349 0.27625756665844359 -0.060897793040114528
v -0.32485011506488337 0.21929909472312009 -0.075243704958443347
v -0.21494984154677382 0.16185852224520758 -0.089916406811000493
v -0.10453165371552053 0.10503503637806116 -0.10453165371552064
v 0.022112360564900208 0.29748218213975747 -0.41354492388476927
v 0.0079091241543702284 0.24015949358788127 -0.30373140923156827
v -0.0065642675116726057 0.18227848460388385 -0.19394791268137868
v -0.021083689156842556 0.12522842491272246 -0.083622686453233508
v 0.076391764377673699 0.39597912455355055 -0.35721022663124952
v 0.062683421084929608 0.33813026166921073 -0.24760890634065269
v 0.048855988668531164 0.2796698363585115 -0.13802908523242624
v 0.034721677377317656 0.22237838693916406 -0.027749338941764096
v 0.12971537571256281 0.49480778664078734 -0.3010600683530873
v 0.11666210426134047 0.43643719345486354 -0.19197163720505811
v 0.10365768817431911 0.37754737986824188 -0.08269155190863095
v 0.090016439734546982 0.31989700642859387 0.02757304352372611
v 0.18395233382477594 0.59189264066625136 -0.24430732103569433
v 0.17130381879307174 0.53331470215633181 -0.13577144295652172
v 0.15889025686211744 0.47454889704088832 -0.026816292770136904
v 0.14558554644057842 0.41667119809956216 0.083226244140096536
v -0.41736326259993617 0.52140387016011613 -0.35544299864535878
v -0.43163195556595452 0.46554760924656818 -0.24576404656446071
v -0.44672702164461497 0.40921970517182216 -0.13646757643976154
v -0.46146433177093821 0.35339091392660971 -0.02629113267595512
v -0.3600842167199379 0.61933590351013013 -0.29878282499106779
v -0.37364805644621951 0.56502109869185302 -0.18915358269925936
v -0.38978348492072323 0.50845614826895758 -0.081317284179496407
v -0.40499694257164609 0.45206687710648719 0.027999897316707212
v -0.30449415105811828 0.71882278663234511 -0.24519979580980894
v -0.31561167343580276 0.6689153762362372 -0.13289011569662179
v -0.333660512136845 0.61031866868936802 -0.027214120537245326
v -0.34807954783880368 0.55153884895833083 0.080987187741305158
v -0.26378507468245133 0.82361031300195642 -0.20366448164684173
v -0.26316916392631062 0.77870705280583186 -0.085334234476797707
v -0.27288832388123196 0.71046960959245997 0.024693057693850946
v -0.28972475712130907 0.64938924814030274 0.13467392848251983
f 24 29 117
f 30 89 177
f 68 73 152
f 73 78 156
f 34 39 125
f 34 126 39
f 39 126 40
f 87 176 88
f 85 172 88
f 88 177 89
f 29 122 34
f 33 38 124
f 28 121 33
f 33 121 34
f 15 170 86
f 53 54 141
f 48 53 136
f 53 137 54
f 48 137 53
f 38 39 129
f 48 49 137
f 48 133 49
f 94 95 189
f 63 68 148
f 85 88 173
f 14 19 109
f 38 125 39
f 14 110 19
f 86 89 174
f 51 52 139
f 51 93 187
f 96 97 192
f 93 188 96
f 47 136 52
f 51 135 52
f 93 96 187
f 47 52 135
f 6 186 92
f 2 100 7
f 8 101 9
f 17 22 111
f 16 17 111
f 26 115 27
f 26 27 119
f 54 138 55
f 49 54 137
f 12 17 107
f 49 138 54
f 32 37 123
f 39 40 130
f 28 117 29
f 18 109 19
f 18 19 113
f 7 100 8
f 83 86 170
f 83 169 86
f 81 168 82
f 85 86 169
f 8 105 13
f 95 98 189
f 28 29 121
f 6 99 7
f 58 145 63
f 59 142 60
f 27 116 28
f 15 86 174
f 9 102 10
f 24 118 29
f 91 94 184
f 70 163 81
f 14 15 110
f 31 97 193
f 95 190 98
f 43 133 48
f 73 74 157
f 16 98 190
f 81 84 168
f 34 35 126
f 76 182 92
f 18 113 23
f 67 152 72
f 56 90 183
f 11 12 107
f 59 146 64
f 68 149 69
f 75 80 158
f 75 165 80
f 10 83 170
f 10 166 83
f 52 53 140
f 57 58 144
f 75 82 165
f 88 89 173
f 11 103 12
f 91 181 92
f 33 125 38
f 56 179 90
f 7 12 103
f 97 98 193
f 78 79 161
f 50 87 171
f 19 114 24
f 6 7 103
f 82 169 83
f 46 131 47
f 80 83 166
f 36 123 37
f 38 43 128
f 44 45 134
f 3 78 161
f 6 92 182
f 31 119 32
f 44 49 133
f 40 176 87
f 70 75 154
f 8 9 105
f 16 21 194
f 22 27 115
f 20 25 114
f 72 152 73
f 44 130 45
f 30 177 35
f 68 69 153
f 52 140 57
f 71 151 72
f 56 57 143
f 90 93 183
f 55 171 84
f 22 112 23
f 12 13 108
f 53 141 58
f 64 69 149
f 76 155 77
f 50 55 138
f 33 34 125
f 16 107 17
f 21 26 194
f 70 164 75
f 21 115 26
f 14 106 15
f 91 92 185
f 4 102 9
f 74 75 158
f 71 72 155
f 60 163 65
f 27 28 120
f 72 77 155
f 26 98 194
f 81 167 84
f 66 151 71
f 86 173 89
f 71 181 91
f 73 153 74
f 77 156 78
f 2 160 3
f 90 184 93
f 22 23 116
f 46 96 191
f 51 139 56
f 84 87 172
f 51 183 93
f 18 23 112
f 55 60 142
f 43 129 44
f 30 178 89
f 29 118 30
f 45 50 134
f 67 72 151
f 17 18 112
f 26 193 98
f 6 103 11
f 23 24 117
f 41 127 42
f 60 81 163
f 37 128 42
f 85 173 86
f 63 149 68
f 73 157 78
f 25 178 30
f 64 150 69
f 26 119 31
f 11 95 186
f 74 154 75
f 10 15 106
f 63 145 64
f 10 170 15
f 15 20 110
f 1 99 6
f 37 38 128
f 11 190 95
f 23 117 28
f 9 10 106
f 49 50 138
f 36 41 191
f 65 70 150
f 46 187 96
f 27 120 32
f 62 67 147
f 7 8 104
f 55 167 60
f 79 158 80
f 51 56 183
f 12 104 13
f 9 14 105
f 42 132 47
f 66 147 67
f 4 161 79
f 2 77 160
f 3 101 8
f 24 114 25
f 31 36 192
f 41 42 131
f 19 110 20
f 1 159 2
f 84 172 85
f 62 63 148
f 94 97 188
f 54 59 141
f 19 24 113
f 46 47 135
f 32 33 124
f 12 108 17
f 64 146 65
f 9 106 14
f 71 91 180
f 2 7 99
f 55 84 167
f 45 175 50
f 92 186 95
f 1 6 182
f 57 140 58
f 46 135 51
f 87 88 172
f 13 18 108
f 42 128 43
f 56 61 179
f 29 30 122
f 76 77 159
f 67 68 152
f 50 175 87
f 36 37 127
f 36 96 192
f 69 154 74
f 42 43 132
f 69 150 70
f 82 85 169
f 17 112 22
f 39 44 129
f 23 113 24
f 19 20 114
f 21 22 115
f 4 5 102
f 17 108 18
f 26 31 193
f 46 51 187
f 32 124 37
f 62 144 63
f 93 184 94
f 11 107 16
f 11 16 190
f 57 62 143
f 37 124 38
f 61 143 62
f 72 73 156
f 58 63 144
f 50 171 55
f 72 156 77
f 58 141 59
f 97 189 98
f 24 25 118
f 31 123 36
f 43 48 132
f 54 55 142
f 76 92 181
f 16 111 21
f 2 3 100
f 13 109 18
f 66 71 180
f 61 62 147
f 22 116 27
f 62 148 67
f 8 13 104
f 3 4 101
f 1 182 76
f 42 47 131
f 39 130 44
f 1 2 99
f 82 83 165
f 37 42 127
f 6 11 186
f 56 143 61
f 59 60 146
f 84 85 168
f 71 155 76
f 60 65 146
f 91 185 94
f 31 32 123
f 96 188 97
f 57 144 62
f 81 82 164
f 4 162 5
f 1 76 159
f 4 9 101
f 40 87 175
f 78 157 79
f 60 167 81
f 31 192 97
f 84 171 87
f 90 180 91
f 52 57 139
f 5 10 102
f 5 166 10
f 3 8 100
f 35 176 40
f 56 139 57
f 38 129 43
f 59 64 145
f 77 78 160
f 94 185 95
f 79 80 162
f 44 134 49
f 63 64 149
f 54 142 59
f 52 136 53
f 7 104 12
f 15 174 20
f 58 59 145
f 36 127 41
f 61 147 66
f 69 74 153
f 21 111 22
f 70 81 164
f 30 35 122
f 47 132 48
f 49 134 50
f 3 160 78
f 35 40 126
f 20 174 89
f 80 165 83
f 74 79 157
f 41 131 46
f 53 58 140
f 66 180 90
f 75 164 82
f 28 33 120
f 4 79 162
f 71 76 181
f 66 90 179
f 40 175 45
f 40 45 130
f 20 89 178
f 74 158 79
f 5 80 166
f 5 162 80
f 2 159 77
f 64 65 150
f 3 161 4
f 27 32 119
f 35 88 176
f 23 28 116
f 13 105 14
f 34 122 35
f 41 46 191
f 47 48 136
f 43 44 133
f 92 95 185
f 61 66 179
f 68 153 73
f 82 168 85
f 20 178 25
f 36 191 96
f 25 30 118
f 35 177 88
f 29 34 121
f 93 94 188
f 65 163 70
f 94 189 97
f 13 14 109
f 69 70 154
f 67 148 68
f 66 67 151
f 32 120 33
f 16 194 98
f 90 91 184
