# Generated by the TriMeshRef class
# Number of vertices: 194
# Number of faces: 384
v -0.49687758179024222 0.27683965372928487 0.0016946901131879299
v -0.38684586556146056 0.22032719713358581 -0.012468703093007016
v -0.2772117416988974 0.16267092272687581 -0.027087668944335563
v -0.16709610610479797 0.10510682210047767 -0.041925785389549164
v -0.056435954411293288 0.048701809758071146 -0.056435954411293399
v -0.44028063177214627 0.37475213260372137 0.056592686235211576
v -0.33017394260887084 0.31800965905886053 0.04263243146863005
v -0.2206922051056287 0.2596304538400539 0.028562309653090923
v -0.11078950639591278 0.20170634266037502 0.01419616073163954
v -0.00016688141214449281 0.14539967272148097 -0.00016688141214465935
v -0.38404323562962711 0.4742043949491756 0.10997833300268414
v -0.2743417775616277 0.41695060659766026 0.096364928569763308
v -0.16522616687381186 0.35793097353422382 0.083175548175081077
v -0.055406716222867497 0.29941257208099914 0.069491681281212719
v 0.055367700181941149 0.24299630371367875 0.055367700181940954
v -0.32740415858007715 0.57305949051366289 0.16276447687675574
v -0.21845014532472484 0.51501732234948638 0.14975475234261637
v -0.10986727732608537 0.4558508997566153 0.13735438973916048
v -0.0002646453789066916 0.39699645777763826 0.12461054247984535
v 0.11059744514296674 0.34018442555091155 0.11059744514296652
v -0.26976341966194572 0.66907067107322726 0.21819455243192987
v -0.16161097963358237 0.61042414043125293 0.20509621306845727
v -0.053156546847677358 0.55196787230080857 0.19301079237325458
v 0.056024351642188122 0.49338213830631489 0.18058637572395519
v 0.16654909200833976 0.43612390074587154 0.16654909200833951
v -0.25050682257826362 0.72597132582677437 0.10602801605421036
v -0.14576380974140116 0.66816634352511561 0.090942217219014743
v -0.039197806576927188 0.609445696467523 0.081327202533051229
v 0.070211323609923049 0.55028834709590946 0.070211323609922854
v 0.18058637572395531 0.49338213830631489 0.056024351642187761
v -0.2290529532996054 0.79206013405065678 -0.0065830334593552616
v -0.13450230624443954 0.73196254711965203 -0.03381041173706531
v -0.026260158186741742 0.67387851487230988 -0.026260158186741836
v 0.081327202533051299 0.609445696467523 -0.039197806576927396
v 0.19301079237325464 0.55196787230080857 -0.053156546847677698
v -0.25 0.878135 -0.125
v -0.125 0.878135 -0.125
v -0.033810411737065331 0.73196254711965203 -0.13450230624443965
v 0.090942217219014701 0.66816634352511561 -0.14576380974140135
v 0.20509621306845724 0.61042414043125293 -0.16161097963358267
v -0.25 0.878135 -0.25
v -0.125 0.878135 -0.25
v -0.0065830334593553405 0.79206013405065678 -0.22905295329960551
v 0.10602801605421026 0.72597132582677437 -0.25050682257826379
v 0.21819455243192964 0.66907067107322737 -0.26976341966194606
v -0.28228567789275522 0.78792909723309246 -0.28228567789275522
v -0.15737217775576537 0.75024201037036675 -0.27285452581238406
v -0.052381632214476267 0.69439113932745156 -0.30076910206224022
v 0.051709119616106566 0.62945621598040935 -0.31122427898362215
v 0.16276447687675549 0.57305949051366267 -0.32740415858007743
v -0.32701577332749432 0.69408311805038458 -0.32701577332749421
v -0.21412526909557916 0.64303639811988822 -0.33582030705911864
v -0.10768101548720489 0.58799170308880699 -0.35300232144367794
v -0.00050240092600883912 0.5294356190086148 -0.36964576553606832
v 0.10997833300268392 0.47420439494917566 -0.38404323562962728
v -0.38219925456840453 0.5976890779523828 -0.38219925456840437
v -0.27179041664169351 0.54253404608960709 -0.39530093068519467
v -0.16301688759276842 0.48652159544028051 -0.41046789469149991
v -0.054067909605125697 0.42987532035132958 -0.4260170146327103
v 0.056592686235211326 0.37475213260372148 -0.44028063177214649
v -0.43893532285148373 0.500642260488394 -0.43893532285148362
v -0.32884608987775099 0.44474869772135917 -0.4530166255702433
v -0.21940169974492804 0.38838503241651351 -0.46774126313737041
v -0.10938253337311296 0.33209612666207322 -0.48268062086541619
v 0.0016946901131876524 0.27683965372928493 -0.49687758179024233
v -0.45301662557024336 0.44474869772135905 -0.32884608987775088
v -0.3430173807578889 0.3887524722985724 -0.34301738075788873
v -0.23343195863572913 0.33232846747023997 -0.35766903934433986
v -0.12343288834658564 0.27576684150550002 -0.37251794033607671
v -0.012468703093007183 0.22032719713358584 -0.38684586556146067
v -0.46774126313737052 0.38838503241651356 -0.21940169974492776
v -0.35766903934433991 0.33232846747023992 -0.23343195863572899
v -0.24808764630302479 0.27537104141124713 -0.24808764630302474
v -0.13798361328959907 0.21843131073102179 -0.26282295292626645
v -0.027087668944335619 0.16267092272687581 -0.27721174169889751
v -0.48268062086541608 0.33209612666207317 -0.10938253337311277
v -0.37251794033607666 0.27576684150550013 -0.12343288834658547
v -0.26282295292626645 0.21843131073102184 -0.13798361328959902
v -0.15266640062841946 0.16122526601744711 -0.15266640062841952
v -0.041925785389549164 0.10510682210047767 -0.16709610610479808
v 0.042632431468629911 0.31800965905886058 -0.33017394260887101
v 0.028562309653090867 0.2596304538400539 -0.2206922051056289
v 0.014196160731639568 0.20170634266037502 -0.11078950639591298
v 0.096364928569763197 0.41695060659766026 -0.27434177756162803
v 0.083175548175081049 0.35793097353422382 -0.16522616687381209
v 0.069491681281212775 0.29941257208099908 -0.055406716222867747
v 0.14975475234261626 0.51501732234948638 -0.21845014532472509
v 0.13735438973916048 0.45585089975661536 -0.10986727732608563
v 0.12461054247984546 0.39699645777763831 -0.00026464537890691364
v -0.39530093068519478 0.54253404608960709 -0.27179041664169334
v -0.41046789469149991 0.48652159544028051 -0.16301688759276822
v -0.42601701463271024 0.42987532035132958 -0.054067909605125475
v -0.33582030705911875 0.64303639811988822 -0.21412526909557905
v -0.35300232144367788 0.58799170308880688 -0.10768101548720468
v -0.36964576553606815 0.5294356190086148 -0.00050240092600861708
v -0.27285452581238406 0.75024201037036675 -0.15737217775576534
v -0.30076910206224011 0.69439113932745156 -0.05238163221447615
v -0.31122427898362198 0.62945621598040935 0.051709119616106761
v -0.41354450543317994 0.29748216063136312 0.022112776181005628
v -0.30373093874371437 0.240159558189844 0.007909592271094612
v -0.19394738982630921 0.1822786353319456 -0.0065637459872885939
v -0.083622112081037148 0.12522866181010123 -0.021083115120336948
v -0.35720989689306792 0.39597919830235451 0.076392094819072331
v -0.24760852303748473 0.33813042325769971 0.062683804466641374
v -0.13802864864955519 0.27967008552891304 0.048856424960256106
v -0.027748850962245858 0.22237872279413357 0.03472216519566218
v -0.3010598292740142 0.4948079536024963 0.12971562269795489
v -0.19197134177156244 0.43643745055949645 0.11666240470665531
v -0.082691201450417862 0.37754772578736912 0.1036580404188249
v 0.027573445930783397 0.31989743978080692 0.090016842271491371
v -0.24430717580008246 0.59189290609190748 0.18395249867993985
v -0.13577123728301743 0.53331505870954088 0.17130403688087223
v -0.026816029477620268 0.47454934203534432 0.15889052507905393
v 0.083226560853647019 0.41667173059518414 0.1455858638387767
v -0.20691125790379822 0.66840812021409257 0.15506524969340307
v -0.099932285699897011 0.61000101318117506 0.14259410629844446
v 0.0084703304568766596 0.55127101354263908 0.13128392356004598
v 0.11834278574610158 0.49329413111360271 0.11834278574610133
v -0.18995647296592741 0.72954008763054967 0.039144197019201132
v -0.086431020187377416 0.6708632754961501 0.028049712457064703
v 0.021520140344826355 0.61076456372581633 0.021520140344826209
v 0.13128392356004609 0.55127101354263897 0.0084703304568763821
v -0.18463881488601125 0.8200731702925772 -0.072598361299105144
v -0.079893219042061661 0.75398465227790346 -0.079893219042061703
v 0.028049712457064731 0.6708632754961501 -0.086431020187377555
v 0.14259410629844446 0.61000101318117506 -0.099932285699897289
v -0.1875 0.878135 -0.1875
v -0.072598361299105171 0.8200731702925772 -0.18463881488601128
v 0.039144197019201077 0.72954008763054967 -0.18995647296592758
v 0.15506524969340296 0.66840812021409257 -0.20691125790379847
v -0.20366446391213011 0.82361027690086486 -0.26378505092628479
v -0.085334210857399201 0.77870707093711888 -0.26316914529355739
v 0.024693117499121349 0.71046970379632313 -0.27288828923093283
v 0.13467404124475055 0.64938942584851855 -0.28972466995097729
v -0.24519972451789851 0.71882265594343298 -0.30449407102293802
v -0.13289002363825642 0.6689153127266283 -0.3156115640943552
v -0.027213982252895855 0.61031866935132073 -0.33366036700640217
v 0.080987382142384295 0.55153893011296562 -0.34807935968234877
v -0.29878267840829287 0.61933566005306573 -0.36008406641005292
v -0.18915339720431143 0.56502093568464573 -0.37364786346987272
v -0.081317053402776923 0.50845605947225803 -0.38978324907598905
v 0.028000177176690233 0.4520668667282105 -0.40499666189263805
v -0.35544277098483318 0.52140352056293571 -0.41736303341883146
v -0.24576377346428527 0.46554734291694005 -0.43163167852107709
v -0.13646725757898376 0.40921951871754919 -0.44672669833174922
v -0.026290766657459913 0.3533908083366023 -0.46146396226512887
v -0.39095385476434175 0.44472303205742114 -0.39095385476434164
v -0.28117428225407426 0.38855366747667125 -0.40536107720246056
v -0.17141227002508894 0.33214411701358171 -0.42015221592080082
v -0.060897358674879526 0.27625745475761099 -0.434730502138299
v -0.40536107720246067 0.38855366747667119 -0.28117428225407409
v -0.29555150626024568 0.33219511216257486 -0.29555150626024562
v -0.18573402664373465 0.27547441527950223 -0.31027439472742696
v -0.075243218418381885 0.21929906802424587 -0.32484962513067533
v -0.42015221592080076 0.33214411701358171 -0.17141227002508874
v -0.31027439472742696 0.27547441527950223 -0.18573402664373456
v -0.20039015328682747 0.21836473222268446 -0.20039015328682741
v -0.089915867062975829 0.16185858039395556 -0.21494930033959536
v -0.43473050213829889 0.27625745475761099 -0.060897358674879332
v -0.32484962513067528 0.2192990680242459 -0.075243218418381774
v -0.21494930033959531 0.16185858039395562 -0.089915867062975829
v -0.104531061633515 0.10503517999411838 -0.10453106163351505
v 0.022112776181005434 0.29748216063136323 -0.41354450543318011
v 0.007909592271094501 0.24015955818984402 -0.30373093874371448
v -0.0065637459872885384 0.1822786353319456 -0.19394738982630938
v -0.021083115120336893 0.12522866181010117 -0.083622112081037314
v 0.076392094819072137 0.39597919830235462 -0.35720989689306815
v 0.062683804466641291 0.33813042325769971 -0.24760852303748496
v 0.048856424960256106 0.27967008552891298 -0.13802864864955539
v 0.034722165195662291 0.22237872279413351 -0.027748850962246052
v 0.12971562269795472 0.4948079536024963 -0.30105982927401442
v 0.11666240470665526 0.43643745055949645 -0.19197134177156269
v 0.10365804041882493 0.37754772578736912 -0.082691201450418111
v 0.09001684227149151 0.31989743978080692 0.027573445930783175
v 0.18395249867993971 0.59189290609190737 -0.24430717580008274
v 0.1713040368808722 0.53331505870954088 -0.13577123728301771
v 0.15889052507905405 0.47454934203534432 -0.026816029477620573
v 0.14558586383877686 0.4166717305951842 0.083226560853646755
v -0.41736303341883163 0.52140352056293571 -0.35544277098483307
v -0.43163167852107714 0.46554734291694005 -0.24576377346428505
v -0.44672669833174916 0.40921951871754919 -0.13646725757898354
v -0.4614639622651287 0.35339080833660225 -0.026290766657459719
v -0.36008406641005308 0.61933566005306573 -0.29878267840829265
v -0.37364786346987278 0.56502093568464573 -0.18915339720431126
v -0.38978324907598899 0.50845605947225803 -0.081317053402776701
v -0.40499666189263794 0.45206686672821039 0.028000177176690455
v -0.30449407102293807 0.71882265594343298 -0.24519972451789843
v -0.3156115640943552 0.6689153127266283 -0.13289002363825628
v -0.33366036700640206 0.61031866935132062 -0.02721398225289566
v -0.3480793596823486 0.55153893011296562 0.080987382142384504
v -0.26378505092628479 0.82361027690086486 -0.20366446391213011
v -0.26316914529355734 0.77870707093711888 -0.085334210857399145
v -0.27288828923093272 0.71046970379632313 0.024693117499121467
v -0.28972466995097707 0.64938942584851855 0.13467404124475074
f 24 29 117
f 30 89 177
f 68 73 152
f 73 78 156
f 34 39 125
f 34 126 39
f 39 126 40
f 87 176 88
f 85 172 88
f 88 177 89
f 29 122 34
f 33 38 124
f 28 121 33
f 33 121 34
f 15 170 86
f 53 54 141
f 48 53 136
f 53 137 54
f 48 137 53
f 38 39 129
f 48 49 137
f 48 133 49
f 94 95 189
f 63 68 148
f 85 88 173
f 14 19 109
f 38 125 39
f 14 110 19
f 86 89 174
f 51 52 139
f 51 93 187
f 96 97 192
f 93 188 96
f 47 136 52
f 51 135 52
f 93 96 187
f 47 52 135
f 6 186 92
f 2 100 7
f 8 101 9
f 17 22 111
f 16 17 111
f 26 115 27
f 26 27 119
f 54 138 55
f 49 54 137
f 12 17 107
f 49 138 54
f 32 37 123
f 39 40 130
f 28 117 29
f 18 109 19
f 18 19 113
f 7 100 8
f 83 86 170
f 83 169 86
f 81 168 82
f 85 86 169
f 8 105 13
f 95 98 189
f 28 29 121
f 6 99 7
f 58 145 63
f 59 142 60
f 27 116 28
f 15 86 174
f 9 102 10
f 24 118 29
f 91 94 184
f 70 163 81
f 14 15 110
f 31 97 193
f 95 190 98
f 43 133 48
f 73 74 157
f 16 98 190
f 81 84 168
f 34 35 126
f 76 182 92
f 18 113 23
f 67 152 72
f 56 90 183
f 11 12 107
f 59 146 64
f 68 149 69
f 75 80 158
f 75 165 80
f 10 83 170
f 10 166 83
f 52 53 140
f 57 58 144
f 75 82 165
f 88 89 173
f 11 103 12
f 91 181 92
f 33 125 38
f 56 179 90
f 7 12 103
f 97 98 193
f 78 79 161
f 50 87 171
f 19 114 24
f 6 7 103
f 82 169 83
f 46 131 47
f 80 83 166
f 36 123 37
f 38 43 128
f 44 45 134
f 3 78 161
f 6 92 182
f 31 119 32
f 44 49 133
f 40 176 87
f 70 75 154
f 8 9 105
f 16 21 194
f 22 27 115
f 20 25 114
f 72 152 73
f 44 130 45
f 30 177 35
f 68 69 153
f 52 140 57
f 71 151 72
f 56 57 143
f 90 93 183
f 55 171 84
f 22 112 23
f 12 13 108
f 53 141 58
f 64 69 149
f 76 155 77
f 50 55 138
f 33 34 125
f 16 107 17
f 21 26 194
f 70 164 75
f 21 115 26
f 14 106 15
f 91 92 185
f 4 102 9
f 74 75 158
f 71 72 155
f 60 163 65
f 27 28 120
f 72 77 155
f 26 98 194
f 81 167 84
f 66 151 71
f 86 173 89
f 71 181 91
f 73 153 74
f 77 156 78
f 2 160 3
f 90 184 93
f 22 23 116
f 46 96 191
f 51 139 56
f 84 87 172
f 51 183 93
f 18 23 112
f 55 60 142
f 43 129 44
f 30 178 89
f 29 118 30
f 45 50 134
f 67 72 151
f 17 18 112
f 26 193 98
f 6 103 11
f 23 24 117
f 41 127 42
f 60 81 163
f 37 128 42
f 85 173 86
f 63 149 68
f 73 157 78
f 25 178 30
f 64 150 69
f 26 119 31
f 11 95 186
f 74 154 75
f 10 15 106
f 63 145 64
f 10 170 15
f 15 20 110
f 1 99 6
f 37 38 128
f 11 190 95
f 23 117 28
f 9 10 106
f 49 50 138
f 36 41 191
f 65 70 150
f 46 187 96
f 27 120 32
f 62 67 147
f 7 8 104
f 55 167 60
f 79 158 80
f 51 56 183
f 12 104 13
f 9 14 105
f 42 132 47
f 66 147 67
f 4 161 79
f 2 77 160
f 3 101 8
f 24 114 25
f 31 36 192
f 41 42 131
f 19 110 20
f 1 159 2
f 84 172 85
f 62 63 148
f 94 97 188
f 54 59 141
f 19 24 113
f 46 47 135
f 32 33 124
f 12 108 17
f 64 146 65
f 9 106 14
f 71 91 180
f 2 7 99
f 55 84 167
f 45 175 50
f 92 186 95
f 1 6 182
f 57 140 58
f 46 135 51
f 87 88 172
f 13 18 108
f 42 128 43
f 56 61 179
f 29 30 122
f 76 77 159
f 67 68 152
f 50 175 87
f 36 37 127
f 36 96 192
f 69 154 74
f 42 43 132
f 69 150 70
f 82 85 169
f 17 112 22
f 39 44 129
f 23 113 24
f 19 20 114
f 21 22 115
f 4 5 102
f 17 108 18
f 26 31 193
f 46 51 187
f 32 124 37
f 62 144 63
f 93 184 94
f 11 107 16
f 11 16 190
f 57 62 143
f 37 124 38
f 61 143 62
f 72 73 156
f 58 63 144
f 50 171 55
f 72 156 77
f 58 141 59
f 97 189 98
f 24 25 118
f 31 123 36
f 43 48 132
f 54 55 142
f 76 92 181
f 16 111 21
f 2 3 100
f 13 109 18
f 66 71 180
f 61 62 147
f 22 116 27
f 62 148 67
f 8 13 104
f 3 4 101
f 1 182 76
f 42 47 131
f 39 130 44
f 1 2 99
f 82 83 165
f 37 42 127
f 6 11 186
f 56 143 61
f 59 60 146
f 84 85 168
f 71 155 76
f 60 65 146
f 91 185 94
f 31 32 123
f 96 188 97
f 57 144 62
f 81 82 164
f 4 162 5
f 1 76 159
f 4 9 101
f 40 87 175
f 78 157 79
f 60 167 81
f 31 192 97
f 84 171 87
f 90 180 91
f 52 57 139
f 5 10 102
f 5 166 10
f 3 8 100
f 35 176 40
f 56 139 57
f 38 129 43
f 59 64 145
f 77 78 160
f 94 185 95
f 79 80 162
f 44 134 49
f 63 64 149
f 54 142 59
f 52 136 53
f 7 104 12
f 15 174 20
f 58 59 145
f 36 127 41
f 61 147 66
f 69 74 153
f 21 111 22
f 70 81 164
f 30 35 122
f 47 132 48
f 49 134 50
f 3 160 78
f 35 40 126
f 20 174 89
f 80 165 83
f 74 79 157
f 41 131 46
f 53 58 140
f 66 180 90
f 75 164 82
f 28 33 120
f 4 79 162
f 71 76 181
f 66 90 179
f 40 175 45
f 40 45 130
f 20 89 178
f 74 158 79
f 5 80 166
f 5 162 80
f 2 159 77
f 64 65 150
f 3 161 4
f 27 32 119
f 35 88 176
f 23 28 116
f 13 105 14
f 34 122 35
f 41 46 191
f 47 48 136
f 43 44 133
f 92 95 185
f 61 66 179
f 68 153 73
f 82 168 85
f 20 178 25
f 36 191 96
f 25 30 118
f 35 177 88
f 29 34 121
f 93 94 188
f 65 163 70
f 94 189 97
f 13 14 109
f 69 70 154
f 67 148 68
f 66 67 151
f 32 120 33
f 16 194 98
f 90 91 184
