# Generated by the TriMeshRef class
# Number of vertices: 194
# Number of faces: 384
v -0.25 0.378135 0.25
v -0.125 0.378135 0.25
v 0 0.378135 0.25
v 0.125 0.378135 0.25
v 0.25 0.378135 0.25
v -0.22281917998789344 0.53026281022734456 0.24531866802134389
v -0.10040936964784998 0.51306764140195738 0.24712966412391016
v 0.023020452853593169 0.50411909712207426 0.24947851548781494
v 0.14797535197841866 0.49537049562677016 0.25178862992913276
v 0.27176371149208889 0.47784069144658309 0.25348619328586874
v -0.1975927414378168 0.65585805980040468 0.24879559311950361
v -0.074422507891697673 0.63770992188498354 0.24926939893745834
v 0.049999999884973632 0.62813500001548495 0.24944511897092111
v 0.17442250770574252 0.61856007822453873 0.24926939896124151
v 0.29759274138853209 0.60041194009274146 0.2487955930163358
v -0.1717637119381191 0.77842930824140155 0.25348619329606809
v -0.04797535221005568 0.76089950448436627 0.25178862994780704
v 0.07697954691285408 0.75215090289162878 0.2494785155585354
v 0.20040936946579474 0.74320235858341799 0.24712966421828073
v 0.32281918055901021 0.72600718963203836 0.24531866752555048
v -0.14999999999999999 0.878135 0.25
v -0.024999999999999994 0.878135 0.25
v 0.10000000000000001 0.878135 0.25
v 0.22500000000000001 0.878135 0.25
v 0.34999999999999998 0.878135 0.25
v -0.14999999999999999 0.878135 0.125
v -0.024999999999999994 0.878135 0.125
v 0.10000000000000001 0.878135 0.125
v 0.22500000000000001 0.878135 0.125
v 0.34999999999999998 0.878135 0.125
v -0.14999999999999999 0.878135 0
v -0.024999999999999994 0.878135 0
v 0.10000000000000001 0.878135 0
v 0.22500000000000001 0.878135 0
v 0.34999999999999998 0.878135 0
v -0.14999999999999999 0.878135 -0.125
v -0.024999999999999994 0.878135 -0.125
v 0.10000000000000001 0.878135 -0.125
v 0.22500000000000001 0.878135 -0.125
v 0.34999999999999998 0.878135 -0.125
v -0.14999999999999999 0.878135 -0.25
v -0.024999999999999994 0.878135 -0.25
v 0.10000000000000001 0.878135 -0.25
v 0.22500000000000001 0.878135 -0.25
v 0.34999999999999998 0.878135 -0.25
v -0.17176371193811912 0.77842930824140155 -0.25348619329606809
v -0.047975352210055708 0.76089950448436616 -0.25178862994780693
v 0.076979546912854052 0.75215090289162878 -0.24947851555853529
v 0.20040936946579468 0.74320235858341788 -0.24712966421828073
v 0.32281918055901015 0.72600718963203836 -0.24531866752555051
v -0.19759274143781683 0.65585805980040468 -0.24879559311950353
v -0.074422507891697687 0.63770992188498365 -0.24926939893745825
v 0.049999999884973598 0.62813500001548495 -0.24944511897092109
v 0.1744225077057425 0.61856007822453873 -0.24926939896124148
v 0.29759274138853198 0.60041194009274146 -0.24879559301633589
v -0.2228191799878935 0.53026281022734456 -0.24531866802134381
v -0.10040936964784999 0.51306764140195726 -0.2471296641239101
v 0.023020452853593141 0.50411909712207437 -0.24947851548781491
v 0.14797535197841866 0.49537049562677021 -0.25178862992913276
v 0.27176371149208883 0.47784069144658309 -0.25348619328586874
v -0.25 0.378135 -0.25
v -0.125 0.378135 -0.25
v 0 0.378135 -0.25
v 0.125 0.378135 -0.25
v 0.25 0.378135 -0.25
v -0.25 0.378135 -0.125
v -0.125 0.378135 -0.125
v 0 0.378135 -0.125
v 0.125 0.378135 -0.125
v 0.25 0.378135 -0.125
v -0.25 0.378135 0
v -0.125 0.378135 0
v 0 0.378135 0
v 0.125 0.378135 0
v 0.25 0.378135 0
v -0.25 0.378135 0.125
v -0.125 0.378135 0.125
v 0 0.378135 0.125
v 0.125 0.378135 0.125
v 0.25 0.378135 0.125
v 0.27338127627576692 0.4788389647499634 -0.12647258235911543
v 0.27358587813194746 0.47975907144456559 2.450422690358824e-17
v 0.27338127627576697 0.4788389647499634 0.12647258235911549
v 0.29713570551116458 0.6002232094125326 -0.12438000920816701
v 0.2971501660264308 0.60114212045652948 3.3922511671743568e-17
v 0.29713570551116469 0.6002232094125326 0.12438000920816702
v 0.32121009014146518 0.72767594204073882 -0.12228637267129319
v 0.32099478916743718 0.72896340732756892 2.030753114265274e-17
v 0.32121009014146518 0.72767594204073882 0.12228637267129328
v -0.22121009019480894 0.52859405821111405 -0.12228637256821438
v -0.22099478923828131 0.52730659284684855 3.353807669961428e-17
v -0.22121009019480892 0.52859405821111405 0.12228637256821444
v -0.19713570562413035 0.65604679081596473 -0.12438000920077828
v -0.19715016614419331 0.65512787975494624 4.9919586437669066e-17
v -0.19713570562413035 0.65604679081596473 0.12438000920077838
v -0.17338127641946766 0.77743103549602666 -0.12647258237804884
v -0.17358587828135461 0.77651092880184924 5.7233921302509704e-17
v -0.17338127641946763 0.77743103549602666 0.12647258237804887
v -0.17455713740893586 0.44990011290732546 0.24811208303631352
v -0.0505972291985642 0.44336418463100791 0.24915204490293127
v 0.073998951208002955 0.43893989818721113 0.25031678635423693
v 0.1986847658676269 0.43237029676833832 0.25131870580375038
v -0.14881094974131445 0.58422460832867262 0.24762833105055401
v -0.025452856200245191 0.57075791510612517 0.24883067438002615
v 0.098854578105682017 0.56154616774721711 0.24999541583727758
v 0.22293857814119555 0.54804580134765846 0.25083495379814469
v -0.12293857836942232 0.70822419860278907 0.25083495382520926
v 0.0011454216740185985 0.69472383231911583 0.24999541585368046
v 0.12545285599234124 0.68551208492876758 0.24883067442724469
v 0.24881094977976989 0.67204539163318411 0.24762833093035214
v -0.098684766037043667 0.82389970318144201 0.25131870581096877
v 0.02600104867569962 0.8173301018439989 0.25031678637658561
v 0.15059722909466222 0.81290581536876183 0.24915204494420404
v 0.27455713750620125 0.80636988705386414 0.2481120829359578
v -0.087499999999999994 0.878135 0.1875
v 0.037500000000000006 0.878135 0.1875
v 0.16250000000000001 0.878135 0.1875
v 0.28749999999999998 0.878135 0.1875
v -0.087499999999999994 0.878135 0.0625
v 0.037500000000000006 0.878135 0.0625
v 0.16250000000000001 0.878135 0.0625
v 0.28749999999999998 0.878135 0.0625
v -0.087499999999999994 0.878135 -0.0625
v 0.037500000000000006 0.878135 -0.0625
v 0.16250000000000001 0.878135 -0.0625
v 0.28749999999999998 0.878135 -0.0625
v -0.087499999999999994 0.878135 -0.1875
v 0.037500000000000006 0.878135 -0.1875
v 0.16250000000000001 0.878135 -0.1875
v 0.28749999999999998 0.878135 -0.1875
v -0.098684766037043681 0.82389970318144201 -0.25131870581096877
v 0.026001048675699606 0.8173301018439989 -0.25031678637658555
v 0.15059722909466222 0.81290581536876183 -0.24915204494420401
v 0.27455713750620125 0.80636988705386414 -0.24811208293595782
v -0.12293857836942233 0.70822419860278907 -0.25083495382520921
v 0.0011454216740185569 0.69472383231911583 -0.2499954158536804
v 0.12545285599234121 0.68551208492876758 -0.24883067442724463
v 0.24881094977976984 0.67204539163318411 -0.24762833093035214
v -0.14881094974131448 0.58422460832867262 -0.24762833105055393
v -0.025452856200245212 0.57075791510612517 -0.2488306743800261
v 0.098854578105681989 0.56154616774721711 -0.24999541583727755
v 0.2229385781411955 0.54804580134765846 -0.25083495379814469
v -0.17455713740893586 0.44990011290732546 -0.24811208303631349
v -0.050597229198564214 0.44336418463100791 -0.24915204490293125
v 0.073998951208002942 0.43893989818721113 -0.25031678635423693
v 0.19868476586762687 0.43237029676833832 -0.25131870580375038
v -0.1875 0.378135 -0.1875
v -0.0625 0.378135 -0.1875
v 0.0625 0.378135 -0.1875
v 0.1875 0.378135 -0.1875
v -0.1875 0.378135 -0.0625
v -0.0625 0.378135 -0.0625
v 0.0625 0.378135 -0.0625
v 0.1875 0.378135 -0.0625
v -0.1875 0.378135 0.0625
v -0.0625 0.378135 0.0625
v 0.0625 0.378135 0.0625
v 0.1875 0.378135 0.0625
v -0.1875 0.378135 0.1875
v -0.0625 0.378135 0.1875
v 0.0625 0.378135 0.1875
v 0.1875 0.378135 0.1875
v 0.26128624694196395 0.42823741404913662 -0.18873969391124604
v 0.26174178860192859 0.42871700904863225 -0.062868145589778851
v 0.26174178860192859 0.42871700904863225 0.062868145589778879
v 0.26128624694196395 0.42823741404913662 0.18873969391124606
v 0.28496835866688813 0.5393287014254553 -0.18828359446737178
v 0.28531325648632744 0.53999084151589782 -0.062713147891820586
v 0.28531325648632749 0.53999084151589782 0.062713147891820642
v 0.28496835866688819 0.5393287014254553 0.18828359446737175
v 0.30968942940004296 0.66357957029451275 -0.18519516060533664
v 0.30912268771162443 0.66450116980934248 -0.061666595469865033
v 0.30912268771162443 0.66450116980934248 0.061666595469865089
v 0.30968942940004301 0.66357957029451275 0.18519516060533664
v 0.33600731767511888 0.80248828291819441 -0.18565126004921093
v 0.33555121982722558 0.80322733734207707 -0.061821593167823291
v 0.33555121982722563 0.80322733734207707 0.061821593167823326
v 0.33600731767511888 0.80248828291819441 0.18565126004921095
v -0.23600731754567561 0.45378171710961462 -0.18565126014738956
v -0.23555121985827257 0.45304266276449062 -0.061821593142053585
v -0.23555121985827257 0.45304266276449062 0.06182159314205362
v -0.23600731754567558 0.45378171710961462 0.18565126014738959
v -0.20968942931116238 0.59269042976370712 -0.18519516072746001
v -0.20912268780035345 0.5917688304072185 -0.061666595442248145
v -0.20912268780035345 0.5917688304072185 0.061666595442248229
v -0.20968942931116236 0.59269042976370712 0.18519516072746009
v -0.1849683588548835 0.71694129858844946 -0.18828359449859969
v -0.18531325661728648 0.71627915871719672 -0.06271314789470675
v -0.18531325661728648 0.71627915871719672 0.062713147894706847
v -0.18496835885488347 0.71694129858844946 0.18828359449859974
v -0.16128624708939668 0.82803258593435713 -0.18873969391852924
v -0.16174178867520556 0.82755299107446911 -0.06286814559451219
v -0.16174178867520556 0.827552991074469 0.062868145594512231
v -0.16128624708939665 0.82803258593435713 0.18873969391852924
f 24 29 117
f 30 89 177
f 68 73 152
f 73 78 156
f 34 39 125
f 34 126 39
f 39 126 40
f 87 176 88
f 85 172 88
f 88 177 89
f 29 122 34
f 33 38 124
f 28 121 33
f 33 121 34
f 15 170 86
f 53 54 141
f 48 53 136
f 53 137 54
f 48 137 53
f 38 39 129
f 48 49 137
f 48 133 49
f 94 95 189
f 63 68 148
f 85 88 173
f 14 19 109
f 38 125 39
f 14 110 19
f 86 89 174
f 51 52 139
f 51 93 187
f 96 97 192
f 93 188 96
f 47 136 52
f 51 135 52
f 93 96 187
f 47 52 135
f 6 186 92
f 2 100 7
f 8 101 9
f 17 22 111
f 16 17 111
f 26 115 27
f 26 27 119
f 54 138 55
f 49 54 137
f 12 17 107
f 49 138 54
f 32 37 123
f 39 40 130
f 28 117 29
f 18 109 19
f 18 19 113
f 7 100 8
f 83 86 170
f 83 169 86
f 81 168 82
f 85 86 169
f 8 105 13
f 95 98 189
f 28 29 121
f 6 99 7
f 58 145 63
f 59 142 60
f 27 116 28
f 15 86 174
f 9 102 10
f 24 118 29
f 91 94 184
f 70 163 81
f 14 15 110
f 31 97 193
f 95 190 98
f 43 133 48
f 73 74 157
f 16 98 190
f 81 84 168
f 34 35 126
f 76 182 92
f 18 113 23
f 67 152 72
f 56 90 183
f 11 12 107
f 59 146 64
f 68 149 69
f 75 80 158
f 75 165 80
f 10 83 170
f 10 166 83
f 52 53 140
f 57 58 144
f 75 82 165
f 88 89 173
f 11 103 12
f 91 181 92
f 33 125 38
f 56 179 90
f 7 12 103
f 97 98 193
f 78 79 161
f 50 87 171
f 19 114 24
f 6 7 103
f 82 169 83
f 46 131 47
f 80 83 166
f 36 123 37
f 38 43 128
f 44 45 134
f 3 78 161
f 6 92 182
f 31 119 32
f 44 49 133
f 40 176 87
f 70 75 154
f 8 9 105
f 16 21 194
f 22 27 115
f 20 25 114
f 72 152 73
f 44 130 45
f 30 177 35
f 68 69 153
f 52 140 57
f 71 151 72
f 56 57 143
f 90 93 183
f 55 171 84
f 22 112 23
f 12 13 108
f 53 141 58
f 64 69 149
f 76 155 77
f 50 55 138
f 33 34 125
f 16 107 17
f 21 26 194
f 70 164 75
f 21 115 26
f 14 106 15
f 91 92 185
f 4 102 9
f 74 75 158
f 71 72 155
f 60 163 65
f 27 28 120
f 72 77 155
f 26 98 194
f 81 167 84
f 66 151 71
f 86 173 89
f 71 181 91
f 73 153 74
f 77 156 78
f 2 160 3
f 90 184 93
f 22 23 116
f 46 96 191
f 51 139 56
f 84 87 172
f 51 183 93
f 18 23 112
f 55 60 142
f 43 129 44
f 30 178 89
f 29 118 30
f 45 50 134
f 67 72 151
f 17 18 112
f 26 193 98
f 6 103 11
f 23 24 117
f 41 127 42
f 60 81 163
f 37 128 42
f 85 173 86
f 63 149 68
f 73 157 78
f 25 178 30
f 64 150 69
f 26 119 31
f 11 95 186
f 74 154 75
f 10 15 106
f 63 145 64
f 10 170 15
f 15 20 110
f 1 99 6
f 37 38 128
f 11 190 95
f 23 117 28
f 9 10 106
f 49 50 138
f 36 41 191
f 65 70 150
f 46 187 96
f 27 120 32
f 62 67 147
f 7 8 104
f 55 167 60
f 79 158 80
f 51 56 183
f 12 104 13
f 9 14 105
f 42 132 47
f 66 147 67
f 4 161 79
f 2 77 160
f 3 101 8
f 24 114 25
f 31 36 192
f 41 42 131
f 19 110 20
f 1 159 2
f 84 172 85
f 62 63 148
f 94 97 188
f 54 59 141
f 19 24 113
f 46 47 135
f 32 33 124
f 12 108 17
f 64 146 65
f 9 106 14
f 71 91 180
f 2 7 99
f 55 84 167
f 45 175 50
f 92 186 95
f 1 6 182
f 57 140 58
f 46 135 51
f 87 88 172
f 13 18 108
f 42 128 43
f 56 61 179
f 29 30 122
f 76 77 159
f 67 68 152
f 50 175 87
f 36 37 127
f 36 96 192
f 69 154 74
f 42 43 132
f 69 150 70
f 82 85 169
f 17 112 22
f 39 44 129
f 23 113 24
f 19 20 114
f 21 22 115
f 4 5 102
f 17 108 18
f 26 31 193
f 46 51 187
f 32 124 37
f 62 144 63
f 93 184 94
f 11 107 16
f 11 16 190
f 57 62 143
f 37 124 38
f 61 143 62
f 72 73 156
f 58 63 144
f 50 171 55
f 72 156 77
f 58 141 59
f 97 189 98
f 24 25 118
f 31 123 36
f 43 48 132
f 54 55 142
f 76 92 181
f 16 111 21
f 2 3 100
f 13 109 18
f 66 71 180
f 61 62 147
f 22 116 27
f 62 148 67
f 8 13 104
f 3 4 101
f 1 182 76
f 42 47 131
f 39 130 44
f 1 2 99
f 82 83 165
f 37 42 127
f 6 11 186
f 56 143 61
f 59 60 146
f 84 85 168
f 71 155 76
f 60 65 146
f 91 185 94
f 31 32 123
f 96 188 97
f 57 144 62
f 81 82 164
f 4 162 5
f 1 76 159
f 4 9 101
f 40 87 175
f 78 157 79
f 60 167 81
f 31 192 97
f 84 171 87
f 90 180 91
f 52 57 139
f 5 10 102
f 5 166 10
f 3 8 100
f 35 176 40
f 56 139 57
f 38 129 43
f 59 64 145
f 77 78 160
f 94 185 95
f 79 80 162
f 44 134 49
f 63 64 149
f 54 142 59
f 52 136 53
f 7 104 12
f 15 174 20
f 58 59 145
f 36 127 41
f 61 147 66
f 69 74 153
f 21 111 22
f 70 81 164
f 30 35 122
f 47 132 48
f 49 134 50
f 3 160 78
f 35 40 126
f 20 174 89
f 80 165 83
f 74 79 157
f 41 131 46
f 53 58 140
f 66 180 90
f 75 164 82
f 28 33 120
f 4 79 162
f 71 76 181
f 66 90 179
f 40 175 45
f 40 45 130
f 20 89 178
f 74 158 79
f 5 80 166
f 5 162 80
f 2 159 77
f 64 65 150
f 3 161 4
f 27 32 119
f 35 88 176
f 23 28 116
f 13 105 14
f 34 122 35
f 41 46 191
f 47 48 136
f 43 44 133
f 92 95 185
f 61 66 179
f 68 153 73
f 82 168 85
f 20 178 25
f 36 191 96
f 25 30 118
f 35 177 88
f 29 34 121
f 93 94 188
f 65 163 70
f 94 189 97
f 13 14 109
f 69 70 154
f 67 148 68
f 66 67 151
f 32 120 33
f 16 194 98
f 90 91 184
